<?xml version="1.0" encoding="utf-8" standalone="no"?>
<!DOCTYPE svg PUBLIC "-//W3C//DTD SVG 1.1//EN"
  "http://www.w3.org/Graphics/SVG/1.1/DTD/svg11.dtd">
<svg xmlns:xlink="http://www.w3.org/1999/xlink" width="460.8pt" height="345.6pt" viewBox="0 0 460.8 345.6" xmlns="http://www.w3.org/2000/svg" version="1.1">
 <metadata>
  <rdf:RDF xmlns:dc="http://purl.org/dc/elements/1.1/" xmlns:cc="http://creativecommons.org/ns#" xmlns:rdf="http://www.w3.org/1999/02/22-rdf-syntax-ns#">
   <cc:Work>
    <dc:type rdf:resource="http://purl.org/dc/dcmitype/StillImage"/>
    <dc:date>2024-01-10T14:31:42.751869</dc:date>
    <dc:format>image/svg+xml</dc:format>
    <dc:creator>
     <cc:Agent>
      <dc:title>Matplotlib v3.8.1, https://matplotlib.org/</dc:title>
     </cc:Agent>
    </dc:creator>
   </cc:Work>
  </rdf:RDF>
 </metadata>
 <defs>
  <style type="text/css">*{stroke-linejoin: round; stroke-linecap: butt}</style>
 </defs>
 <g id="figure_1">
  <g id="patch_1">
   <path d="M 0 345.6 
L 460.8 345.6 
L 460.8 0 
L 0 0 
z
" style="fill: #ffffff"/>
  </g>
  <g id="axes_1">
   <g id="patch_2">
    <path d="M 57.6 307.584 
L 414.72 307.584 
L 414.72 41.472 
L 57.6 41.472 
z
" style="fill: #ffffff"/>
   </g>
   <g id="matplotlib.axis_1">
    <g id="xtick_1">
     <g id="line2d_1">
      <defs>
       <path id="mbc9ccf98d2" d="M 0 0 
L 0 3.5 
" style="stroke: #000000; stroke-width: 0.8"/>
      </defs>
      <g>
       <use xlink:href="#mbc9ccf98d2" x="73.832727" y="307.584" style="stroke: #000000; stroke-width: 0.8"/>
      </g>
     </g>
     <g id="text_1">
      <!-- 0 -->
      <g transform="translate(70.651477 322.182437) scale(0.1 -0.1)">
       <defs>
        <path id="DejaVuSans-30" d="M 2034 4250 
Q 1547 4250 1301 3770 
Q 1056 3291 1056 2328 
Q 1056 1369 1301 889 
Q 1547 409 2034 409 
Q 2525 409 2770 889 
Q 3016 1369 3016 2328 
Q 3016 3291 2770 3770 
Q 2525 4250 2034 4250 
z
M 2034 4750 
Q 2819 4750 3233 4129 
Q 3647 3509 3647 2328 
Q 3647 1150 3233 529 
Q 2819 -91 2034 -91 
Q 1250 -91 836 529 
Q 422 1150 422 2328 
Q 422 3509 836 4129 
Q 1250 4750 2034 4750 
z
" transform="scale(0.015625)"/>
       </defs>
       <use xlink:href="#DejaVuSans-30"/>
      </g>
     </g>
    </g>
    <g id="xtick_2">
     <g id="line2d_2">
      <g>
       <use xlink:href="#mbc9ccf98d2" x="114.618474" y="307.584" style="stroke: #000000; stroke-width: 0.8"/>
      </g>
     </g>
     <g id="text_2">
      <!-- 25 -->
      <g transform="translate(108.255974 322.182437) scale(0.1 -0.1)">
       <defs>
        <path id="DejaVuSans-32" d="M 1228 531 
L 3431 531 
L 3431 0 
L 469 0 
L 469 531 
Q 828 903 1448 1529 
Q 2069 2156 2228 2338 
Q 2531 2678 2651 2914 
Q 2772 3150 2772 3378 
Q 2772 3750 2511 3984 
Q 2250 4219 1831 4219 
Q 1534 4219 1204 4116 
Q 875 4013 500 3803 
L 500 4441 
Q 881 4594 1212 4672 
Q 1544 4750 1819 4750 
Q 2544 4750 2975 4387 
Q 3406 4025 3406 3419 
Q 3406 3131 3298 2873 
Q 3191 2616 2906 2266 
Q 2828 2175 2409 1742 
Q 1991 1309 1228 531 
z
" transform="scale(0.015625)"/>
        <path id="DejaVuSans-35" d="M 691 4666 
L 3169 4666 
L 3169 4134 
L 1269 4134 
L 1269 2991 
Q 1406 3038 1543 3061 
Q 1681 3084 1819 3084 
Q 2600 3084 3056 2656 
Q 3513 2228 3513 1497 
Q 3513 744 3044 326 
Q 2575 -91 1722 -91 
Q 1428 -91 1123 -41 
Q 819 9 494 109 
L 494 744 
Q 775 591 1075 516 
Q 1375 441 1709 441 
Q 2250 441 2565 725 
Q 2881 1009 2881 1497 
Q 2881 1984 2565 2268 
Q 2250 2553 1709 2553 
Q 1456 2553 1204 2497 
Q 953 2441 691 2322 
L 691 4666 
z
" transform="scale(0.015625)"/>
       </defs>
       <use xlink:href="#DejaVuSans-32"/>
       <use xlink:href="#DejaVuSans-35" x="63.623047"/>
      </g>
     </g>
    </g>
    <g id="xtick_3">
     <g id="line2d_3">
      <g>
       <use xlink:href="#mbc9ccf98d2" x="155.404221" y="307.584" style="stroke: #000000; stroke-width: 0.8"/>
      </g>
     </g>
     <g id="text_3">
      <!-- 50 -->
      <g transform="translate(149.041721 322.182437) scale(0.1 -0.1)">
       <use xlink:href="#DejaVuSans-35"/>
       <use xlink:href="#DejaVuSans-30" x="63.623047"/>
      </g>
     </g>
    </g>
    <g id="xtick_4">
     <g id="line2d_4">
      <g>
       <use xlink:href="#mbc9ccf98d2" x="196.189968" y="307.584" style="stroke: #000000; stroke-width: 0.8"/>
      </g>
     </g>
     <g id="text_4">
      <!-- 75 -->
      <g transform="translate(189.827468 322.182437) scale(0.1 -0.1)">
       <defs>
        <path id="DejaVuSans-37" d="M 525 4666 
L 3525 4666 
L 3525 4397 
L 1831 0 
L 1172 0 
L 2766 4134 
L 525 4134 
L 525 4666 
z
" transform="scale(0.015625)"/>
       </defs>
       <use xlink:href="#DejaVuSans-37"/>
       <use xlink:href="#DejaVuSans-35" x="63.623047"/>
      </g>
     </g>
    </g>
    <g id="xtick_5">
     <g id="line2d_5">
      <g>
       <use xlink:href="#mbc9ccf98d2" x="236.975715" y="307.584" style="stroke: #000000; stroke-width: 0.8"/>
      </g>
     </g>
     <g id="text_5">
      <!-- 100 -->
      <g transform="translate(227.431965 322.182437) scale(0.1 -0.1)">
       <defs>
        <path id="DejaVuSans-31" d="M 794 531 
L 1825 531 
L 1825 4091 
L 703 3866 
L 703 4441 
L 1819 4666 
L 2450 4666 
L 2450 531 
L 3481 531 
L 3481 0 
L 794 0 
L 794 531 
z
" transform="scale(0.015625)"/>
       </defs>
       <use xlink:href="#DejaVuSans-31"/>
       <use xlink:href="#DejaVuSans-30" x="63.623047"/>
       <use xlink:href="#DejaVuSans-30" x="127.246094"/>
      </g>
     </g>
    </g>
    <g id="xtick_6">
     <g id="line2d_6">
      <g>
       <use xlink:href="#mbc9ccf98d2" x="277.761462" y="307.584" style="stroke: #000000; stroke-width: 0.8"/>
      </g>
     </g>
     <g id="text_6">
      <!-- 125 -->
      <g transform="translate(268.217712 322.182437) scale(0.1 -0.1)">
       <use xlink:href="#DejaVuSans-31"/>
       <use xlink:href="#DejaVuSans-32" x="63.623047"/>
       <use xlink:href="#DejaVuSans-35" x="127.246094"/>
      </g>
     </g>
    </g>
    <g id="xtick_7">
     <g id="line2d_7">
      <g>
       <use xlink:href="#mbc9ccf98d2" x="318.547209" y="307.584" style="stroke: #000000; stroke-width: 0.8"/>
      </g>
     </g>
     <g id="text_7">
      <!-- 150 -->
      <g transform="translate(309.003459 322.182437) scale(0.1 -0.1)">
       <use xlink:href="#DejaVuSans-31"/>
       <use xlink:href="#DejaVuSans-35" x="63.623047"/>
       <use xlink:href="#DejaVuSans-30" x="127.246094"/>
      </g>
     </g>
    </g>
    <g id="xtick_8">
     <g id="line2d_8">
      <g>
       <use xlink:href="#mbc9ccf98d2" x="359.332956" y="307.584" style="stroke: #000000; stroke-width: 0.8"/>
      </g>
     </g>
     <g id="text_8">
      <!-- 175 -->
      <g transform="translate(349.789206 322.182437) scale(0.1 -0.1)">
       <use xlink:href="#DejaVuSans-31"/>
       <use xlink:href="#DejaVuSans-37" x="63.623047"/>
       <use xlink:href="#DejaVuSans-35" x="127.246094"/>
      </g>
     </g>
    </g>
    <g id="xtick_9">
     <g id="line2d_9">
      <g>
       <use xlink:href="#mbc9ccf98d2" x="400.118703" y="307.584" style="stroke: #000000; stroke-width: 0.8"/>
      </g>
     </g>
     <g id="text_9">
      <!-- 200 -->
      <g transform="translate(390.574953 322.182437) scale(0.1 -0.1)">
       <use xlink:href="#DejaVuSans-32"/>
       <use xlink:href="#DejaVuSans-30" x="63.623047"/>
       <use xlink:href="#DejaVuSans-30" x="127.246094"/>
      </g>
     </g>
    </g>
    <g id="text_10">
     <!-- Individuals -->
     <g transform="translate(209.20375 335.860562) scale(0.1 -0.1)">
      <defs>
       <path id="DejaVuSans-49" d="M 628 4666 
L 1259 4666 
L 1259 0 
L 628 0 
L 628 4666 
z
" transform="scale(0.015625)"/>
       <path id="DejaVuSans-6e" d="M 3513 2113 
L 3513 0 
L 2938 0 
L 2938 2094 
Q 2938 2591 2744 2837 
Q 2550 3084 2163 3084 
Q 1697 3084 1428 2787 
Q 1159 2491 1159 1978 
L 1159 0 
L 581 0 
L 581 3500 
L 1159 3500 
L 1159 2956 
Q 1366 3272 1645 3428 
Q 1925 3584 2291 3584 
Q 2894 3584 3203 3211 
Q 3513 2838 3513 2113 
z
" transform="scale(0.015625)"/>
       <path id="DejaVuSans-64" d="M 2906 2969 
L 2906 4863 
L 3481 4863 
L 3481 0 
L 2906 0 
L 2906 525 
Q 2725 213 2448 61 
Q 2172 -91 1784 -91 
Q 1150 -91 751 415 
Q 353 922 353 1747 
Q 353 2572 751 3078 
Q 1150 3584 1784 3584 
Q 2172 3584 2448 3432 
Q 2725 3281 2906 2969 
z
M 947 1747 
Q 947 1113 1208 752 
Q 1469 391 1925 391 
Q 2381 391 2643 752 
Q 2906 1113 2906 1747 
Q 2906 2381 2643 2742 
Q 2381 3103 1925 3103 
Q 1469 3103 1208 2742 
Q 947 2381 947 1747 
z
" transform="scale(0.015625)"/>
       <path id="DejaVuSans-69" d="M 603 3500 
L 1178 3500 
L 1178 0 
L 603 0 
L 603 3500 
z
M 603 4863 
L 1178 4863 
L 1178 4134 
L 603 4134 
L 603 4863 
z
" transform="scale(0.015625)"/>
       <path id="DejaVuSans-76" d="M 191 3500 
L 800 3500 
L 1894 563 
L 2988 3500 
L 3597 3500 
L 2284 0 
L 1503 0 
L 191 3500 
z
" transform="scale(0.015625)"/>
       <path id="DejaVuSans-75" d="M 544 1381 
L 544 3500 
L 1119 3500 
L 1119 1403 
Q 1119 906 1312 657 
Q 1506 409 1894 409 
Q 2359 409 2629 706 
Q 2900 1003 2900 1516 
L 2900 3500 
L 3475 3500 
L 3475 0 
L 2900 0 
L 2900 538 
Q 2691 219 2414 64 
Q 2138 -91 1772 -91 
Q 1169 -91 856 284 
Q 544 659 544 1381 
z
M 1991 3584 
L 1991 3584 
z
" transform="scale(0.015625)"/>
       <path id="DejaVuSans-61" d="M 2194 1759 
Q 1497 1759 1228 1600 
Q 959 1441 959 1056 
Q 959 750 1161 570 
Q 1363 391 1709 391 
Q 2188 391 2477 730 
Q 2766 1069 2766 1631 
L 2766 1759 
L 2194 1759 
z
M 3341 1997 
L 3341 0 
L 2766 0 
L 2766 531 
Q 2569 213 2275 61 
Q 1981 -91 1556 -91 
Q 1019 -91 701 211 
Q 384 513 384 1019 
Q 384 1609 779 1909 
Q 1175 2209 1959 2209 
L 2766 2209 
L 2766 2266 
Q 2766 2663 2505 2880 
Q 2244 3097 1772 3097 
Q 1472 3097 1187 3025 
Q 903 2953 641 2809 
L 641 3341 
Q 956 3463 1253 3523 
Q 1550 3584 1831 3584 
Q 2591 3584 2966 3190 
Q 3341 2797 3341 1997 
z
" transform="scale(0.015625)"/>
       <path id="DejaVuSans-6c" d="M 603 4863 
L 1178 4863 
L 1178 0 
L 603 0 
L 603 4863 
z
" transform="scale(0.015625)"/>
       <path id="DejaVuSans-73" d="M 2834 3397 
L 2834 2853 
Q 2591 2978 2328 3040 
Q 2066 3103 1784 3103 
Q 1356 3103 1142 2972 
Q 928 2841 928 2578 
Q 928 2378 1081 2264 
Q 1234 2150 1697 2047 
L 1894 2003 
Q 2506 1872 2764 1633 
Q 3022 1394 3022 966 
Q 3022 478 2636 193 
Q 2250 -91 1575 -91 
Q 1294 -91 989 -36 
Q 684 19 347 128 
L 347 722 
Q 666 556 975 473 
Q 1284 391 1588 391 
Q 1994 391 2212 530 
Q 2431 669 2431 922 
Q 2431 1156 2273 1281 
Q 2116 1406 1581 1522 
L 1381 1569 
Q 847 1681 609 1914 
Q 372 2147 372 2553 
Q 372 3047 722 3315 
Q 1072 3584 1716 3584 
Q 2034 3584 2315 3537 
Q 2597 3491 2834 3397 
z
" transform="scale(0.015625)"/>
      </defs>
      <use xlink:href="#DejaVuSans-49"/>
      <use xlink:href="#DejaVuSans-6e" x="29.492188"/>
      <use xlink:href="#DejaVuSans-64" x="92.871094"/>
      <use xlink:href="#DejaVuSans-69" x="156.347656"/>
      <use xlink:href="#DejaVuSans-76" x="184.130859"/>
      <use xlink:href="#DejaVuSans-69" x="243.310547"/>
      <use xlink:href="#DejaVuSans-64" x="271.09375"/>
      <use xlink:href="#DejaVuSans-75" x="334.570312"/>
      <use xlink:href="#DejaVuSans-61" x="397.949219"/>
      <use xlink:href="#DejaVuSans-6c" x="459.228516"/>
      <use xlink:href="#DejaVuSans-73" x="487.011719"/>
     </g>
    </g>
   </g>
   <g id="matplotlib.axis_2">
    <g id="ytick_1">
     <g id="line2d_10">
      <defs>
       <path id="m8f75dd75ea" d="M 0 0 
L -3.5 0 
" style="stroke: #000000; stroke-width: 0.8"/>
      </defs>
      <g>
       <use xlink:href="#m8f75dd75ea" x="57.6" y="306.522947" style="stroke: #000000; stroke-width: 0.8"/>
      </g>
     </g>
     <g id="text_11">
      <!-- 0.0 -->
      <g transform="translate(34.696875 310.322166) scale(0.1 -0.1)">
       <defs>
        <path id="DejaVuSans-2e" d="M 684 794 
L 1344 794 
L 1344 0 
L 684 0 
L 684 794 
z
" transform="scale(0.015625)"/>
       </defs>
       <use xlink:href="#DejaVuSans-30"/>
       <use xlink:href="#DejaVuSans-2e" x="63.623047"/>
       <use xlink:href="#DejaVuSans-30" x="95.410156"/>
      </g>
     </g>
    </g>
    <g id="ytick_2">
     <g id="line2d_11">
      <g>
       <use xlink:href="#m8f75dd75ea" x="57.6" y="266.101895" style="stroke: #000000; stroke-width: 0.8"/>
      </g>
     </g>
     <g id="text_12">
      <!-- 0.1 -->
      <g transform="translate(34.696875 269.901114) scale(0.1 -0.1)">
       <use xlink:href="#DejaVuSans-30"/>
       <use xlink:href="#DejaVuSans-2e" x="63.623047"/>
       <use xlink:href="#DejaVuSans-31" x="95.410156"/>
      </g>
     </g>
    </g>
    <g id="ytick_3">
     <g id="line2d_12">
      <g>
       <use xlink:href="#m8f75dd75ea" x="57.6" y="225.680844" style="stroke: #000000; stroke-width: 0.8"/>
      </g>
     </g>
     <g id="text_13">
      <!-- 0.2 -->
      <g transform="translate(34.696875 229.480062) scale(0.1 -0.1)">
       <use xlink:href="#DejaVuSans-30"/>
       <use xlink:href="#DejaVuSans-2e" x="63.623047"/>
       <use xlink:href="#DejaVuSans-32" x="95.410156"/>
      </g>
     </g>
    </g>
    <g id="ytick_4">
     <g id="line2d_13">
      <g>
       <use xlink:href="#m8f75dd75ea" x="57.6" y="185.259792" style="stroke: #000000; stroke-width: 0.8"/>
      </g>
     </g>
     <g id="text_14">
      <!-- 0.3 -->
      <g transform="translate(34.696875 189.059011) scale(0.1 -0.1)">
       <defs>
        <path id="DejaVuSans-33" d="M 2597 2516 
Q 3050 2419 3304 2112 
Q 3559 1806 3559 1356 
Q 3559 666 3084 287 
Q 2609 -91 1734 -91 
Q 1441 -91 1130 -33 
Q 819 25 488 141 
L 488 750 
Q 750 597 1062 519 
Q 1375 441 1716 441 
Q 2309 441 2620 675 
Q 2931 909 2931 1356 
Q 2931 1769 2642 2001 
Q 2353 2234 1838 2234 
L 1294 2234 
L 1294 2753 
L 1863 2753 
Q 2328 2753 2575 2939 
Q 2822 3125 2822 3475 
Q 2822 3834 2567 4026 
Q 2313 4219 1838 4219 
Q 1578 4219 1281 4162 
Q 984 4106 628 3988 
L 628 4550 
Q 988 4650 1302 4700 
Q 1616 4750 1894 4750 
Q 2613 4750 3031 4423 
Q 3450 4097 3450 3541 
Q 3450 3153 3228 2886 
Q 3006 2619 2597 2516 
z
" transform="scale(0.015625)"/>
       </defs>
       <use xlink:href="#DejaVuSans-30"/>
       <use xlink:href="#DejaVuSans-2e" x="63.623047"/>
       <use xlink:href="#DejaVuSans-33" x="95.410156"/>
      </g>
     </g>
    </g>
    <g id="ytick_5">
     <g id="line2d_14">
      <g>
       <use xlink:href="#m8f75dd75ea" x="57.6" y="144.83874" style="stroke: #000000; stroke-width: 0.8"/>
      </g>
     </g>
     <g id="text_15">
      <!-- 0.4 -->
      <g transform="translate(34.696875 148.637959) scale(0.1 -0.1)">
       <defs>
        <path id="DejaVuSans-34" d="M 2419 4116 
L 825 1625 
L 2419 1625 
L 2419 4116 
z
M 2253 4666 
L 3047 4666 
L 3047 1625 
L 3713 1625 
L 3713 1100 
L 3047 1100 
L 3047 0 
L 2419 0 
L 2419 1100 
L 313 1100 
L 313 1709 
L 2253 4666 
z
" transform="scale(0.015625)"/>
       </defs>
       <use xlink:href="#DejaVuSans-30"/>
       <use xlink:href="#DejaVuSans-2e" x="63.623047"/>
       <use xlink:href="#DejaVuSans-34" x="95.410156"/>
      </g>
     </g>
    </g>
    <g id="ytick_6">
     <g id="line2d_15">
      <g>
       <use xlink:href="#m8f75dd75ea" x="57.6" y="104.417689" style="stroke: #000000; stroke-width: 0.8"/>
      </g>
     </g>
     <g id="text_16">
      <!-- 0.5 -->
      <g transform="translate(34.696875 108.216907) scale(0.1 -0.1)">
       <use xlink:href="#DejaVuSans-30"/>
       <use xlink:href="#DejaVuSans-2e" x="63.623047"/>
       <use xlink:href="#DejaVuSans-35" x="95.410156"/>
      </g>
     </g>
    </g>
    <g id="ytick_7">
     <g id="line2d_16">
      <g>
       <use xlink:href="#m8f75dd75ea" x="57.6" y="63.996637" style="stroke: #000000; stroke-width: 0.8"/>
      </g>
     </g>
     <g id="text_17">
      <!-- 0.6 -->
      <g transform="translate(34.696875 67.795856) scale(0.1 -0.1)">
       <defs>
        <path id="DejaVuSans-36" d="M 2113 2584 
Q 1688 2584 1439 2293 
Q 1191 2003 1191 1497 
Q 1191 994 1439 701 
Q 1688 409 2113 409 
Q 2538 409 2786 701 
Q 3034 994 3034 1497 
Q 3034 2003 2786 2293 
Q 2538 2584 2113 2584 
z
M 3366 4563 
L 3366 3988 
Q 3128 4100 2886 4159 
Q 2644 4219 2406 4219 
Q 1781 4219 1451 3797 
Q 1122 3375 1075 2522 
Q 1259 2794 1537 2939 
Q 1816 3084 2150 3084 
Q 2853 3084 3261 2657 
Q 3669 2231 3669 1497 
Q 3669 778 3244 343 
Q 2819 -91 2113 -91 
Q 1303 -91 875 529 
Q 447 1150 447 2328 
Q 447 3434 972 4092 
Q 1497 4750 2381 4750 
Q 2619 4750 2861 4703 
Q 3103 4656 3366 4563 
z
" transform="scale(0.015625)"/>
       </defs>
       <use xlink:href="#DejaVuSans-30"/>
       <use xlink:href="#DejaVuSans-2e" x="63.623047"/>
       <use xlink:href="#DejaVuSans-36" x="95.410156"/>
      </g>
     </g>
    </g>
    <g id="text_18">
     <!-- accuracy -->
     <g transform="translate(28.617187 197.087375) rotate(-90) scale(0.1 -0.1)">
      <defs>
       <path id="DejaVuSans-63" d="M 3122 3366 
L 3122 2828 
Q 2878 2963 2633 3030 
Q 2388 3097 2138 3097 
Q 1578 3097 1268 2742 
Q 959 2388 959 1747 
Q 959 1106 1268 751 
Q 1578 397 2138 397 
Q 2388 397 2633 464 
Q 2878 531 3122 666 
L 3122 134 
Q 2881 22 2623 -34 
Q 2366 -91 2075 -91 
Q 1284 -91 818 406 
Q 353 903 353 1747 
Q 353 2603 823 3093 
Q 1294 3584 2113 3584 
Q 2378 3584 2631 3529 
Q 2884 3475 3122 3366 
z
" transform="scale(0.015625)"/>
       <path id="DejaVuSans-72" d="M 2631 2963 
Q 2534 3019 2420 3045 
Q 2306 3072 2169 3072 
Q 1681 3072 1420 2755 
Q 1159 2438 1159 1844 
L 1159 0 
L 581 0 
L 581 3500 
L 1159 3500 
L 1159 2956 
Q 1341 3275 1631 3429 
Q 1922 3584 2338 3584 
Q 2397 3584 2469 3576 
Q 2541 3569 2628 3553 
L 2631 2963 
z
" transform="scale(0.015625)"/>
       <path id="DejaVuSans-79" d="M 2059 -325 
Q 1816 -950 1584 -1140 
Q 1353 -1331 966 -1331 
L 506 -1331 
L 506 -850 
L 844 -850 
Q 1081 -850 1212 -737 
Q 1344 -625 1503 -206 
L 1606 56 
L 191 3500 
L 800 3500 
L 1894 763 
L 2988 3500 
L 3597 3500 
L 2059 -325 
z
" transform="scale(0.015625)"/>
      </defs>
      <use xlink:href="#DejaVuSans-61"/>
      <use xlink:href="#DejaVuSans-63" x="61.279297"/>
      <use xlink:href="#DejaVuSans-63" x="116.259766"/>
      <use xlink:href="#DejaVuSans-75" x="171.240234"/>
      <use xlink:href="#DejaVuSans-72" x="234.619141"/>
      <use xlink:href="#DejaVuSans-61" x="275.732422"/>
      <use xlink:href="#DejaVuSans-63" x="337.011719"/>
      <use xlink:href="#DejaVuSans-79" x="391.992188"/>
     </g>
    </g>
   </g>
   <g id="line2d_17">
    <path d="M 73.832727 295.488 
L 75.464157 280.168421 
L 77.095587 168.161688 
L 78.727017 130.00422 
L 80.358447 136.067372 
L 81.989877 120.828636 
L 83.621307 113.674103 
L 85.252736 118.888429 
L 86.884166 88.006741 
L 88.515596 126.689686 
L 90.147026 140.796637 
L 91.778456 96.818523 
L 93.409886 96.37389 
L 95.041316 113.633688 
L 96.672746 121.394529 
L 98.304175 107.489692 
L 99.935605 102.800843 
L 101.567035 122.122108 
L 103.198465 132.469904 
L 104.829895 130.408425 
L 106.461325 101.709486 
L 108.092755 131.863583 
L 109.724185 100.981907 
L 111.355614 123.375163 
L 112.987044 142.736844 
L 114.618474 130.650955 
L 116.249904 114.118737 
L 117.881334 111.855168 
L 119.512764 124.951581 
L 121.144194 101.669059 
L 122.775624 141.888005 
L 124.407053 116.261058 
L 126.038483 96.778119 
L 127.669913 126.245053 
L 129.301343 128.104428 
L 130.932773 127.781054 
L 132.564203 118.039579 
L 134.195633 114.522954 
L 135.827063 127.700211 
L 137.458492 135.461052 
L 139.089922 114.19958 
L 140.721352 145.728004 
L 142.352782 136.794951 
L 143.984212 86.187805 
L 145.615642 124.143158 
L 147.247072 132.186945 
L 148.878502 112.744422 
L 150.509931 96.98021 
L 152.141361 126.972632 
L 153.772791 111.046745 
L 155.404221 107.045059 
L 157.035651 109.874533 
L 158.667081 139.866955 
L 160.298511 120.788209 
L 161.929941 105.428214 
L 163.56137 141.483788 
L 165.1928 119.777683 
L 166.82423 96.333486 
L 168.45566 103.366735 
L 170.08709 133.884634 
L 171.71852 123.698525 
L 173.34995 121.394529 
L 174.98138 125.234527 
L 176.61281 124.183586 
L 178.244239 104.458104 
L 179.875669 126.527999 
L 181.507099 125.153684 
L 183.138529 148.75958 
L 184.769959 123.496423 
L 186.401389 115.493051 
L 188.032819 111.168004 
L 189.664249 113.957062 
L 191.295678 108.217271 
L 192.927108 98.19285 
L 194.558538 99.769267 
L 196.189968 125.840847 
L 197.821398 138.775586 
L 199.452828 126.527999 
L 201.084258 110.400009 
L 202.715688 119.575581 
L 204.347117 120.101057 
L 205.978547 68.725904 
L 207.609977 116.705691 
L 209.241407 104.417689 
L 210.872837 127.538536 
L 212.504267 127.336421 
L 215.767127 74.627369 
L 217.398556 68.847163 
L 219.029986 122.000849 
L 220.661416 99.122519 
L 222.292846 123.173061 
L 223.924276 106.034534 
L 225.555706 116.382318 
L 227.187136 95.969684 
L 228.818566 83.722121 
L 230.449995 86.834529 
L 232.081425 108.378946 
L 233.712855 114.44211 
L 236.975715 99.728839 
L 238.607145 131.17642 
L 240.238575 96.010112 
L 241.870005 99.850099 
L 243.501434 114.765472 
L 245.132864 105.266527 
L 246.764294 93.221054 
L 248.395724 76.203787 
L 250.027154 89.704418 
L 251.658584 72.161685 
L 253.290014 96.37389 
L 254.921444 83.520006 
L 256.552873 101.74989 
L 258.184303 98.556627 
L 259.815733 101.74989 
L 261.447163 87.440849 
L 263.078593 118.524639 
L 264.710023 91.806324 
L 266.341453 99.122519 
L 267.972883 71.312847 
L 269.604312 95.848425 
L 271.235742 79.518309 
L 272.867172 110.117051 
L 274.498602 74.829484 
L 276.130032 76.971794 
L 277.761462 113.714531 
L 279.392892 91.806324 
L 281.024322 119.858527 
L 282.655751 120.869052 
L 284.287181 108.661905 
L 285.918611 102.315782 
L 287.550041 118.443796 
L 289.181471 101.062739 
L 290.812901 120.626534 
L 292.444331 115.897269 
L 294.075761 122.445482 
L 295.70719 111.81474 
L 297.33862 91.078745 
L 298.97005 113.997477 
L 300.60148 121.839162 
L 302.23291 109.551159 
L 303.86434 129.276641 
L 305.49577 138.896845 
L 307.1272 126.04295 
L 308.75863 83.277488 
L 310.390059 123.819797 
L 312.021489 140.998739 
L 313.652919 129.317056 
L 315.284349 130.570112 
L 316.915779 101.871173 
L 318.547209 53.568 
L 320.178639 79.033272 
L 321.810069 102.194523 
L 323.441498 100.011786 
L 325.072928 111.329691 
L 326.704358 109.187369 
L 328.335788 91.200004 
L 329.967218 88.451374 
L 331.598648 84.005067 
L 333.230078 59.954526 
L 334.861508 102.720012 
L 336.492937 100.537274 
L 338.124367 103.205049 
L 339.755797 90.674539 
L 341.387227 100.82022 
L 343.018657 110.03622 
L 344.650087 129.276641 
L 346.281517 101.305257 
L 347.912947 101.143594 
L 349.544376 108.015157 
L 351.175806 113.067795 
L 352.807236 89.138525 
L 354.438666 85.581485 
L 356.070096 99.728839 
L 357.701526 141.443372 
L 359.332956 103.973055 
L 360.964386 98.880001 
L 362.595815 143.302736 
L 364.227245 148.436218 
L 365.858675 122.849687 
L 367.490105 111.81474 
L 369.121535 117.55453 
L 370.752965 128.629893 
L 372.384395 143.545266 
L 374.015825 102.275379 
L 375.647254 92.331788 
L 377.278684 122.243367 
L 378.910114 117.311999 
L 380.541544 113.916634 
L 382.172974 101.830746 
L 383.804404 114.684641 
L 385.435834 114.725057 
L 387.067264 102.922102 
L 388.698693 95.242105 
L 390.330123 105.34737 
L 391.961553 102.315782 
L 393.592983 109.753273 
L 395.224413 122.364638 
L 396.855843 122.283795 
L 398.487273 94.312435 
L 398.487273 94.312435 
" clip-path="url(#p03ef84d46f)" style="fill: none; stroke: #1f77b4; stroke-width: 1.5; stroke-linecap: square"/>
    <defs>
     <path id="m65473e364c" d="M 0 3 
C 0.795609 3 1.55874 2.683901 2.12132 2.12132 
C 2.683901 1.55874 3 0.795609 3 0 
C 3 -0.795609 2.683901 -1.55874 2.12132 -2.12132 
C 1.55874 -2.683901 0.795609 -3 0 -3 
C -0.795609 -3 -1.55874 -2.683901 -2.12132 -2.12132 
C -2.683901 -1.55874 -3 -0.795609 -3 0 
C -3 0.795609 -2.683901 1.55874 -2.12132 2.12132 
C -1.55874 2.683901 -0.795609 3 0 3 
z
" style="stroke: #1f77b4"/>
    </defs>
    <g clip-path="url(#p03ef84d46f)">
     <use xlink:href="#m65473e364c" x="73.832727" y="295.488" style="fill: #1f77b4; stroke: #1f77b4"/>
     <use xlink:href="#m65473e364c" x="75.464157" y="280.168421" style="fill: #1f77b4; stroke: #1f77b4"/>
     <use xlink:href="#m65473e364c" x="77.095587" y="168.161688" style="fill: #1f77b4; stroke: #1f77b4"/>
     <use xlink:href="#m65473e364c" x="78.727017" y="130.00422" style="fill: #1f77b4; stroke: #1f77b4"/>
     <use xlink:href="#m65473e364c" x="80.358447" y="136.067372" style="fill: #1f77b4; stroke: #1f77b4"/>
     <use xlink:href="#m65473e364c" x="81.989877" y="120.828636" style="fill: #1f77b4; stroke: #1f77b4"/>
     <use xlink:href="#m65473e364c" x="83.621307" y="113.674103" style="fill: #1f77b4; stroke: #1f77b4"/>
     <use xlink:href="#m65473e364c" x="85.252736" y="118.888429" style="fill: #1f77b4; stroke: #1f77b4"/>
     <use xlink:href="#m65473e364c" x="86.884166" y="88.006741" style="fill: #1f77b4; stroke: #1f77b4"/>
     <use xlink:href="#m65473e364c" x="88.515596" y="126.689686" style="fill: #1f77b4; stroke: #1f77b4"/>
     <use xlink:href="#m65473e364c" x="90.147026" y="140.796637" style="fill: #1f77b4; stroke: #1f77b4"/>
     <use xlink:href="#m65473e364c" x="91.778456" y="96.818523" style="fill: #1f77b4; stroke: #1f77b4"/>
     <use xlink:href="#m65473e364c" x="93.409886" y="96.37389" style="fill: #1f77b4; stroke: #1f77b4"/>
     <use xlink:href="#m65473e364c" x="95.041316" y="113.633688" style="fill: #1f77b4; stroke: #1f77b4"/>
     <use xlink:href="#m65473e364c" x="96.672746" y="121.394529" style="fill: #1f77b4; stroke: #1f77b4"/>
     <use xlink:href="#m65473e364c" x="98.304175" y="107.489692" style="fill: #1f77b4; stroke: #1f77b4"/>
     <use xlink:href="#m65473e364c" x="99.935605" y="102.800843" style="fill: #1f77b4; stroke: #1f77b4"/>
     <use xlink:href="#m65473e364c" x="101.567035" y="122.122108" style="fill: #1f77b4; stroke: #1f77b4"/>
     <use xlink:href="#m65473e364c" x="103.198465" y="132.469904" style="fill: #1f77b4; stroke: #1f77b4"/>
     <use xlink:href="#m65473e364c" x="104.829895" y="130.408425" style="fill: #1f77b4; stroke: #1f77b4"/>
     <use xlink:href="#m65473e364c" x="106.461325" y="101.709486" style="fill: #1f77b4; stroke: #1f77b4"/>
     <use xlink:href="#m65473e364c" x="108.092755" y="131.863583" style="fill: #1f77b4; stroke: #1f77b4"/>
     <use xlink:href="#m65473e364c" x="109.724185" y="100.981907" style="fill: #1f77b4; stroke: #1f77b4"/>
     <use xlink:href="#m65473e364c" x="111.355614" y="123.375163" style="fill: #1f77b4; stroke: #1f77b4"/>
     <use xlink:href="#m65473e364c" x="112.987044" y="142.736844" style="fill: #1f77b4; stroke: #1f77b4"/>
     <use xlink:href="#m65473e364c" x="114.618474" y="130.650955" style="fill: #1f77b4; stroke: #1f77b4"/>
     <use xlink:href="#m65473e364c" x="116.249904" y="114.118737" style="fill: #1f77b4; stroke: #1f77b4"/>
     <use xlink:href="#m65473e364c" x="117.881334" y="111.855168" style="fill: #1f77b4; stroke: #1f77b4"/>
     <use xlink:href="#m65473e364c" x="119.512764" y="124.951581" style="fill: #1f77b4; stroke: #1f77b4"/>
     <use xlink:href="#m65473e364c" x="121.144194" y="101.669059" style="fill: #1f77b4; stroke: #1f77b4"/>
     <use xlink:href="#m65473e364c" x="122.775624" y="141.888005" style="fill: #1f77b4; stroke: #1f77b4"/>
     <use xlink:href="#m65473e364c" x="124.407053" y="116.261058" style="fill: #1f77b4; stroke: #1f77b4"/>
     <use xlink:href="#m65473e364c" x="126.038483" y="96.778119" style="fill: #1f77b4; stroke: #1f77b4"/>
     <use xlink:href="#m65473e364c" x="127.669913" y="126.245053" style="fill: #1f77b4; stroke: #1f77b4"/>
     <use xlink:href="#m65473e364c" x="129.301343" y="128.104428" style="fill: #1f77b4; stroke: #1f77b4"/>
     <use xlink:href="#m65473e364c" x="130.932773" y="127.781054" style="fill: #1f77b4; stroke: #1f77b4"/>
     <use xlink:href="#m65473e364c" x="132.564203" y="118.039579" style="fill: #1f77b4; stroke: #1f77b4"/>
     <use xlink:href="#m65473e364c" x="134.195633" y="114.522954" style="fill: #1f77b4; stroke: #1f77b4"/>
     <use xlink:href="#m65473e364c" x="135.827063" y="127.700211" style="fill: #1f77b4; stroke: #1f77b4"/>
     <use xlink:href="#m65473e364c" x="137.458492" y="135.461052" style="fill: #1f77b4; stroke: #1f77b4"/>
     <use xlink:href="#m65473e364c" x="139.089922" y="114.19958" style="fill: #1f77b4; stroke: #1f77b4"/>
     <use xlink:href="#m65473e364c" x="140.721352" y="145.728004" style="fill: #1f77b4; stroke: #1f77b4"/>
     <use xlink:href="#m65473e364c" x="142.352782" y="136.794951" style="fill: #1f77b4; stroke: #1f77b4"/>
     <use xlink:href="#m65473e364c" x="143.984212" y="86.187805" style="fill: #1f77b4; stroke: #1f77b4"/>
     <use xlink:href="#m65473e364c" x="145.615642" y="124.143158" style="fill: #1f77b4; stroke: #1f77b4"/>
     <use xlink:href="#m65473e364c" x="147.247072" y="132.186945" style="fill: #1f77b4; stroke: #1f77b4"/>
     <use xlink:href="#m65473e364c" x="148.878502" y="112.744422" style="fill: #1f77b4; stroke: #1f77b4"/>
     <use xlink:href="#m65473e364c" x="150.509931" y="96.98021" style="fill: #1f77b4; stroke: #1f77b4"/>
     <use xlink:href="#m65473e364c" x="152.141361" y="126.972632" style="fill: #1f77b4; stroke: #1f77b4"/>
     <use xlink:href="#m65473e364c" x="153.772791" y="111.046745" style="fill: #1f77b4; stroke: #1f77b4"/>
     <use xlink:href="#m65473e364c" x="155.404221" y="107.045059" style="fill: #1f77b4; stroke: #1f77b4"/>
     <use xlink:href="#m65473e364c" x="157.035651" y="109.874533" style="fill: #1f77b4; stroke: #1f77b4"/>
     <use xlink:href="#m65473e364c" x="158.667081" y="139.866955" style="fill: #1f77b4; stroke: #1f77b4"/>
     <use xlink:href="#m65473e364c" x="160.298511" y="120.788209" style="fill: #1f77b4; stroke: #1f77b4"/>
     <use xlink:href="#m65473e364c" x="161.929941" y="105.428214" style="fill: #1f77b4; stroke: #1f77b4"/>
     <use xlink:href="#m65473e364c" x="163.56137" y="141.483788" style="fill: #1f77b4; stroke: #1f77b4"/>
     <use xlink:href="#m65473e364c" x="165.1928" y="119.777683" style="fill: #1f77b4; stroke: #1f77b4"/>
     <use xlink:href="#m65473e364c" x="166.82423" y="96.333486" style="fill: #1f77b4; stroke: #1f77b4"/>
     <use xlink:href="#m65473e364c" x="168.45566" y="103.366735" style="fill: #1f77b4; stroke: #1f77b4"/>
     <use xlink:href="#m65473e364c" x="170.08709" y="133.884634" style="fill: #1f77b4; stroke: #1f77b4"/>
     <use xlink:href="#m65473e364c" x="171.71852" y="123.698525" style="fill: #1f77b4; stroke: #1f77b4"/>
     <use xlink:href="#m65473e364c" x="173.34995" y="121.394529" style="fill: #1f77b4; stroke: #1f77b4"/>
     <use xlink:href="#m65473e364c" x="174.98138" y="125.234527" style="fill: #1f77b4; stroke: #1f77b4"/>
     <use xlink:href="#m65473e364c" x="176.61281" y="124.183586" style="fill: #1f77b4; stroke: #1f77b4"/>
     <use xlink:href="#m65473e364c" x="178.244239" y="104.458104" style="fill: #1f77b4; stroke: #1f77b4"/>
     <use xlink:href="#m65473e364c" x="179.875669" y="126.527999" style="fill: #1f77b4; stroke: #1f77b4"/>
     <use xlink:href="#m65473e364c" x="181.507099" y="125.153684" style="fill: #1f77b4; stroke: #1f77b4"/>
     <use xlink:href="#m65473e364c" x="183.138529" y="148.75958" style="fill: #1f77b4; stroke: #1f77b4"/>
     <use xlink:href="#m65473e364c" x="184.769959" y="123.496423" style="fill: #1f77b4; stroke: #1f77b4"/>
     <use xlink:href="#m65473e364c" x="186.401389" y="115.493051" style="fill: #1f77b4; stroke: #1f77b4"/>
     <use xlink:href="#m65473e364c" x="188.032819" y="111.168004" style="fill: #1f77b4; stroke: #1f77b4"/>
     <use xlink:href="#m65473e364c" x="189.664249" y="113.957062" style="fill: #1f77b4; stroke: #1f77b4"/>
     <use xlink:href="#m65473e364c" x="191.295678" y="108.217271" style="fill: #1f77b4; stroke: #1f77b4"/>
     <use xlink:href="#m65473e364c" x="192.927108" y="98.19285" style="fill: #1f77b4; stroke: #1f77b4"/>
     <use xlink:href="#m65473e364c" x="194.558538" y="99.769267" style="fill: #1f77b4; stroke: #1f77b4"/>
     <use xlink:href="#m65473e364c" x="196.189968" y="125.840847" style="fill: #1f77b4; stroke: #1f77b4"/>
     <use xlink:href="#m65473e364c" x="197.821398" y="138.775586" style="fill: #1f77b4; stroke: #1f77b4"/>
     <use xlink:href="#m65473e364c" x="199.452828" y="126.527999" style="fill: #1f77b4; stroke: #1f77b4"/>
     <use xlink:href="#m65473e364c" x="201.084258" y="110.400009" style="fill: #1f77b4; stroke: #1f77b4"/>
     <use xlink:href="#m65473e364c" x="202.715688" y="119.575581" style="fill: #1f77b4; stroke: #1f77b4"/>
     <use xlink:href="#m65473e364c" x="204.347117" y="120.101057" style="fill: #1f77b4; stroke: #1f77b4"/>
     <use xlink:href="#m65473e364c" x="205.978547" y="68.725904" style="fill: #1f77b4; stroke: #1f77b4"/>
     <use xlink:href="#m65473e364c" x="207.609977" y="116.705691" style="fill: #1f77b4; stroke: #1f77b4"/>
     <use xlink:href="#m65473e364c" x="209.241407" y="104.417689" style="fill: #1f77b4; stroke: #1f77b4"/>
     <use xlink:href="#m65473e364c" x="210.872837" y="127.538536" style="fill: #1f77b4; stroke: #1f77b4"/>
     <use xlink:href="#m65473e364c" x="212.504267" y="127.336421" style="fill: #1f77b4; stroke: #1f77b4"/>
     <use xlink:href="#m65473e364c" x="214.135697" y="100.941479" style="fill: #1f77b4; stroke: #1f77b4"/>
     <use xlink:href="#m65473e364c" x="215.767127" y="74.627369" style="fill: #1f77b4; stroke: #1f77b4"/>
     <use xlink:href="#m65473e364c" x="217.398556" y="68.847163" style="fill: #1f77b4; stroke: #1f77b4"/>
     <use xlink:href="#m65473e364c" x="219.029986" y="122.000849" style="fill: #1f77b4; stroke: #1f77b4"/>
     <use xlink:href="#m65473e364c" x="220.661416" y="99.122519" style="fill: #1f77b4; stroke: #1f77b4"/>
     <use xlink:href="#m65473e364c" x="222.292846" y="123.173061" style="fill: #1f77b4; stroke: #1f77b4"/>
     <use xlink:href="#m65473e364c" x="223.924276" y="106.034534" style="fill: #1f77b4; stroke: #1f77b4"/>
     <use xlink:href="#m65473e364c" x="225.555706" y="116.382318" style="fill: #1f77b4; stroke: #1f77b4"/>
     <use xlink:href="#m65473e364c" x="227.187136" y="95.969684" style="fill: #1f77b4; stroke: #1f77b4"/>
     <use xlink:href="#m65473e364c" x="228.818566" y="83.722121" style="fill: #1f77b4; stroke: #1f77b4"/>
     <use xlink:href="#m65473e364c" x="230.449995" y="86.834529" style="fill: #1f77b4; stroke: #1f77b4"/>
     <use xlink:href="#m65473e364c" x="232.081425" y="108.378946" style="fill: #1f77b4; stroke: #1f77b4"/>
     <use xlink:href="#m65473e364c" x="233.712855" y="114.44211" style="fill: #1f77b4; stroke: #1f77b4"/>
     <use xlink:href="#m65473e364c" x="235.344285" y="107.125903" style="fill: #1f77b4; stroke: #1f77b4"/>
     <use xlink:href="#m65473e364c" x="236.975715" y="99.728839" style="fill: #1f77b4; stroke: #1f77b4"/>
     <use xlink:href="#m65473e364c" x="238.607145" y="131.17642" style="fill: #1f77b4; stroke: #1f77b4"/>
     <use xlink:href="#m65473e364c" x="240.238575" y="96.010112" style="fill: #1f77b4; stroke: #1f77b4"/>
     <use xlink:href="#m65473e364c" x="241.870005" y="99.850099" style="fill: #1f77b4; stroke: #1f77b4"/>
     <use xlink:href="#m65473e364c" x="243.501434" y="114.765472" style="fill: #1f77b4; stroke: #1f77b4"/>
     <use xlink:href="#m65473e364c" x="245.132864" y="105.266527" style="fill: #1f77b4; stroke: #1f77b4"/>
     <use xlink:href="#m65473e364c" x="246.764294" y="93.221054" style="fill: #1f77b4; stroke: #1f77b4"/>
     <use xlink:href="#m65473e364c" x="248.395724" y="76.203787" style="fill: #1f77b4; stroke: #1f77b4"/>
     <use xlink:href="#m65473e364c" x="250.027154" y="89.704418" style="fill: #1f77b4; stroke: #1f77b4"/>
     <use xlink:href="#m65473e364c" x="251.658584" y="72.161685" style="fill: #1f77b4; stroke: #1f77b4"/>
     <use xlink:href="#m65473e364c" x="253.290014" y="96.37389" style="fill: #1f77b4; stroke: #1f77b4"/>
     <use xlink:href="#m65473e364c" x="254.921444" y="83.520006" style="fill: #1f77b4; stroke: #1f77b4"/>
     <use xlink:href="#m65473e364c" x="256.552873" y="101.74989" style="fill: #1f77b4; stroke: #1f77b4"/>
     <use xlink:href="#m65473e364c" x="258.184303" y="98.556627" style="fill: #1f77b4; stroke: #1f77b4"/>
     <use xlink:href="#m65473e364c" x="259.815733" y="101.74989" style="fill: #1f77b4; stroke: #1f77b4"/>
     <use xlink:href="#m65473e364c" x="261.447163" y="87.440849" style="fill: #1f77b4; stroke: #1f77b4"/>
     <use xlink:href="#m65473e364c" x="263.078593" y="118.524639" style="fill: #1f77b4; stroke: #1f77b4"/>
     <use xlink:href="#m65473e364c" x="264.710023" y="91.806324" style="fill: #1f77b4; stroke: #1f77b4"/>
     <use xlink:href="#m65473e364c" x="266.341453" y="99.122519" style="fill: #1f77b4; stroke: #1f77b4"/>
     <use xlink:href="#m65473e364c" x="267.972883" y="71.312847" style="fill: #1f77b4; stroke: #1f77b4"/>
     <use xlink:href="#m65473e364c" x="269.604312" y="95.848425" style="fill: #1f77b4; stroke: #1f77b4"/>
     <use xlink:href="#m65473e364c" x="271.235742" y="79.518309" style="fill: #1f77b4; stroke: #1f77b4"/>
     <use xlink:href="#m65473e364c" x="272.867172" y="110.117051" style="fill: #1f77b4; stroke: #1f77b4"/>
     <use xlink:href="#m65473e364c" x="274.498602" y="74.829484" style="fill: #1f77b4; stroke: #1f77b4"/>
     <use xlink:href="#m65473e364c" x="276.130032" y="76.971794" style="fill: #1f77b4; stroke: #1f77b4"/>
     <use xlink:href="#m65473e364c" x="277.761462" y="113.714531" style="fill: #1f77b4; stroke: #1f77b4"/>
     <use xlink:href="#m65473e364c" x="279.392892" y="91.806324" style="fill: #1f77b4; stroke: #1f77b4"/>
     <use xlink:href="#m65473e364c" x="281.024322" y="119.858527" style="fill: #1f77b4; stroke: #1f77b4"/>
     <use xlink:href="#m65473e364c" x="282.655751" y="120.869052" style="fill: #1f77b4; stroke: #1f77b4"/>
     <use xlink:href="#m65473e364c" x="284.287181" y="108.661905" style="fill: #1f77b4; stroke: #1f77b4"/>
     <use xlink:href="#m65473e364c" x="285.918611" y="102.315782" style="fill: #1f77b4; stroke: #1f77b4"/>
     <use xlink:href="#m65473e364c" x="287.550041" y="118.443796" style="fill: #1f77b4; stroke: #1f77b4"/>
     <use xlink:href="#m65473e364c" x="289.181471" y="101.062739" style="fill: #1f77b4; stroke: #1f77b4"/>
     <use xlink:href="#m65473e364c" x="290.812901" y="120.626534" style="fill: #1f77b4; stroke: #1f77b4"/>
     <use xlink:href="#m65473e364c" x="292.444331" y="115.897269" style="fill: #1f77b4; stroke: #1f77b4"/>
     <use xlink:href="#m65473e364c" x="294.075761" y="122.445482" style="fill: #1f77b4; stroke: #1f77b4"/>
     <use xlink:href="#m65473e364c" x="295.70719" y="111.81474" style="fill: #1f77b4; stroke: #1f77b4"/>
     <use xlink:href="#m65473e364c" x="297.33862" y="91.078745" style="fill: #1f77b4; stroke: #1f77b4"/>
     <use xlink:href="#m65473e364c" x="298.97005" y="113.997477" style="fill: #1f77b4; stroke: #1f77b4"/>
     <use xlink:href="#m65473e364c" x="300.60148" y="121.839162" style="fill: #1f77b4; stroke: #1f77b4"/>
     <use xlink:href="#m65473e364c" x="302.23291" y="109.551159" style="fill: #1f77b4; stroke: #1f77b4"/>
     <use xlink:href="#m65473e364c" x="303.86434" y="129.276641" style="fill: #1f77b4; stroke: #1f77b4"/>
     <use xlink:href="#m65473e364c" x="305.49577" y="138.896845" style="fill: #1f77b4; stroke: #1f77b4"/>
     <use xlink:href="#m65473e364c" x="307.1272" y="126.04295" style="fill: #1f77b4; stroke: #1f77b4"/>
     <use xlink:href="#m65473e364c" x="308.75863" y="83.277488" style="fill: #1f77b4; stroke: #1f77b4"/>
     <use xlink:href="#m65473e364c" x="310.390059" y="123.819797" style="fill: #1f77b4; stroke: #1f77b4"/>
     <use xlink:href="#m65473e364c" x="312.021489" y="140.998739" style="fill: #1f77b4; stroke: #1f77b4"/>
     <use xlink:href="#m65473e364c" x="313.652919" y="129.317056" style="fill: #1f77b4; stroke: #1f77b4"/>
     <use xlink:href="#m65473e364c" x="315.284349" y="130.570112" style="fill: #1f77b4; stroke: #1f77b4"/>
     <use xlink:href="#m65473e364c" x="316.915779" y="101.871173" style="fill: #1f77b4; stroke: #1f77b4"/>
     <use xlink:href="#m65473e364c" x="318.547209" y="53.568" style="fill: #1f77b4; stroke: #1f77b4"/>
     <use xlink:href="#m65473e364c" x="320.178639" y="79.033272" style="fill: #1f77b4; stroke: #1f77b4"/>
     <use xlink:href="#m65473e364c" x="321.810069" y="102.194523" style="fill: #1f77b4; stroke: #1f77b4"/>
     <use xlink:href="#m65473e364c" x="323.441498" y="100.011786" style="fill: #1f77b4; stroke: #1f77b4"/>
     <use xlink:href="#m65473e364c" x="325.072928" y="111.329691" style="fill: #1f77b4; stroke: #1f77b4"/>
     <use xlink:href="#m65473e364c" x="326.704358" y="109.187369" style="fill: #1f77b4; stroke: #1f77b4"/>
     <use xlink:href="#m65473e364c" x="328.335788" y="91.200004" style="fill: #1f77b4; stroke: #1f77b4"/>
     <use xlink:href="#m65473e364c" x="329.967218" y="88.451374" style="fill: #1f77b4; stroke: #1f77b4"/>
     <use xlink:href="#m65473e364c" x="331.598648" y="84.005067" style="fill: #1f77b4; stroke: #1f77b4"/>
     <use xlink:href="#m65473e364c" x="333.230078" y="59.954526" style="fill: #1f77b4; stroke: #1f77b4"/>
     <use xlink:href="#m65473e364c" x="334.861508" y="102.720012" style="fill: #1f77b4; stroke: #1f77b4"/>
     <use xlink:href="#m65473e364c" x="336.492937" y="100.537274" style="fill: #1f77b4; stroke: #1f77b4"/>
     <use xlink:href="#m65473e364c" x="338.124367" y="103.205049" style="fill: #1f77b4; stroke: #1f77b4"/>
     <use xlink:href="#m65473e364c" x="339.755797" y="90.674539" style="fill: #1f77b4; stroke: #1f77b4"/>
     <use xlink:href="#m65473e364c" x="341.387227" y="100.82022" style="fill: #1f77b4; stroke: #1f77b4"/>
     <use xlink:href="#m65473e364c" x="343.018657" y="110.03622" style="fill: #1f77b4; stroke: #1f77b4"/>
     <use xlink:href="#m65473e364c" x="344.650087" y="129.276641" style="fill: #1f77b4; stroke: #1f77b4"/>
     <use xlink:href="#m65473e364c" x="346.281517" y="101.305257" style="fill: #1f77b4; stroke: #1f77b4"/>
     <use xlink:href="#m65473e364c" x="347.912947" y="101.143594" style="fill: #1f77b4; stroke: #1f77b4"/>
     <use xlink:href="#m65473e364c" x="349.544376" y="108.015157" style="fill: #1f77b4; stroke: #1f77b4"/>
     <use xlink:href="#m65473e364c" x="351.175806" y="113.067795" style="fill: #1f77b4; stroke: #1f77b4"/>
     <use xlink:href="#m65473e364c" x="352.807236" y="89.138525" style="fill: #1f77b4; stroke: #1f77b4"/>
     <use xlink:href="#m65473e364c" x="354.438666" y="85.581485" style="fill: #1f77b4; stroke: #1f77b4"/>
     <use xlink:href="#m65473e364c" x="356.070096" y="99.728839" style="fill: #1f77b4; stroke: #1f77b4"/>
     <use xlink:href="#m65473e364c" x="357.701526" y="141.443372" style="fill: #1f77b4; stroke: #1f77b4"/>
     <use xlink:href="#m65473e364c" x="359.332956" y="103.973055" style="fill: #1f77b4; stroke: #1f77b4"/>
     <use xlink:href="#m65473e364c" x="360.964386" y="98.880001" style="fill: #1f77b4; stroke: #1f77b4"/>
     <use xlink:href="#m65473e364c" x="362.595815" y="143.302736" style="fill: #1f77b4; stroke: #1f77b4"/>
     <use xlink:href="#m65473e364c" x="364.227245" y="148.436218" style="fill: #1f77b4; stroke: #1f77b4"/>
     <use xlink:href="#m65473e364c" x="365.858675" y="122.849687" style="fill: #1f77b4; stroke: #1f77b4"/>
     <use xlink:href="#m65473e364c" x="367.490105" y="111.81474" style="fill: #1f77b4; stroke: #1f77b4"/>
     <use xlink:href="#m65473e364c" x="369.121535" y="117.55453" style="fill: #1f77b4; stroke: #1f77b4"/>
     <use xlink:href="#m65473e364c" x="370.752965" y="128.629893" style="fill: #1f77b4; stroke: #1f77b4"/>
     <use xlink:href="#m65473e364c" x="372.384395" y="143.545266" style="fill: #1f77b4; stroke: #1f77b4"/>
     <use xlink:href="#m65473e364c" x="374.015825" y="102.275379" style="fill: #1f77b4; stroke: #1f77b4"/>
     <use xlink:href="#m65473e364c" x="375.647254" y="92.331788" style="fill: #1f77b4; stroke: #1f77b4"/>
     <use xlink:href="#m65473e364c" x="377.278684" y="122.243367" style="fill: #1f77b4; stroke: #1f77b4"/>
     <use xlink:href="#m65473e364c" x="378.910114" y="117.311999" style="fill: #1f77b4; stroke: #1f77b4"/>
     <use xlink:href="#m65473e364c" x="380.541544" y="113.916634" style="fill: #1f77b4; stroke: #1f77b4"/>
     <use xlink:href="#m65473e364c" x="382.172974" y="101.830746" style="fill: #1f77b4; stroke: #1f77b4"/>
     <use xlink:href="#m65473e364c" x="383.804404" y="114.684641" style="fill: #1f77b4; stroke: #1f77b4"/>
     <use xlink:href="#m65473e364c" x="385.435834" y="114.725057" style="fill: #1f77b4; stroke: #1f77b4"/>
     <use xlink:href="#m65473e364c" x="387.067264" y="102.922102" style="fill: #1f77b4; stroke: #1f77b4"/>
     <use xlink:href="#m65473e364c" x="388.698693" y="95.242105" style="fill: #1f77b4; stroke: #1f77b4"/>
     <use xlink:href="#m65473e364c" x="390.330123" y="105.34737" style="fill: #1f77b4; stroke: #1f77b4"/>
     <use xlink:href="#m65473e364c" x="391.961553" y="102.315782" style="fill: #1f77b4; stroke: #1f77b4"/>
     <use xlink:href="#m65473e364c" x="393.592983" y="109.753273" style="fill: #1f77b4; stroke: #1f77b4"/>
     <use xlink:href="#m65473e364c" x="395.224413" y="122.364638" style="fill: #1f77b4; stroke: #1f77b4"/>
     <use xlink:href="#m65473e364c" x="396.855843" y="122.283795" style="fill: #1f77b4; stroke: #1f77b4"/>
     <use xlink:href="#m65473e364c" x="398.487273" y="94.312435" style="fill: #1f77b4; stroke: #1f77b4"/>
    </g>
   </g>
   <g id="patch_3">
    <path d="M 57.6 307.584 
L 57.6 41.472 
" style="fill: none; stroke: #000000; stroke-width: 0.8; stroke-linejoin: miter; stroke-linecap: square"/>
   </g>
   <g id="patch_4">
    <path d="M 414.72 307.584 
L 414.72 41.472 
" style="fill: none; stroke: #000000; stroke-width: 0.8; stroke-linejoin: miter; stroke-linecap: square"/>
   </g>
   <g id="patch_5">
    <path d="M 57.6 307.584 
L 414.72 307.584 
" style="fill: none; stroke: #000000; stroke-width: 0.8; stroke-linejoin: miter; stroke-linecap: square"/>
   </g>
   <g id="patch_6">
    <path d="M 57.6 41.472 
L 414.72 41.472 
" style="fill: none; stroke: #000000; stroke-width: 0.8; stroke-linejoin: miter; stroke-linecap: square"/>
   </g>
   <g id="text_19">
    <!-- With bias = 100 -->
    <g transform="translate(188.061563 35.472) scale(0.12 -0.12)">
     <defs>
      <path id="DejaVuSans-57" d="M 213 4666 
L 850 4666 
L 1831 722 
L 2809 4666 
L 3519 4666 
L 4500 722 
L 5478 4666 
L 6119 4666 
L 4947 0 
L 4153 0 
L 3169 4050 
L 2175 0 
L 1381 0 
L 213 4666 
z
" transform="scale(0.015625)"/>
      <path id="DejaVuSans-74" d="M 1172 4494 
L 1172 3500 
L 2356 3500 
L 2356 3053 
L 1172 3053 
L 1172 1153 
Q 1172 725 1289 603 
Q 1406 481 1766 481 
L 2356 481 
L 2356 0 
L 1766 0 
Q 1100 0 847 248 
Q 594 497 594 1153 
L 594 3053 
L 172 3053 
L 172 3500 
L 594 3500 
L 594 4494 
L 1172 4494 
z
" transform="scale(0.015625)"/>
      <path id="DejaVuSans-68" d="M 3513 2113 
L 3513 0 
L 2938 0 
L 2938 2094 
Q 2938 2591 2744 2837 
Q 2550 3084 2163 3084 
Q 1697 3084 1428 2787 
Q 1159 2491 1159 1978 
L 1159 0 
L 581 0 
L 581 4863 
L 1159 4863 
L 1159 2956 
Q 1366 3272 1645 3428 
Q 1925 3584 2291 3584 
Q 2894 3584 3203 3211 
Q 3513 2838 3513 2113 
z
" transform="scale(0.015625)"/>
      <path id="DejaVuSans-20" transform="scale(0.015625)"/>
      <path id="DejaVuSans-62" d="M 3116 1747 
Q 3116 2381 2855 2742 
Q 2594 3103 2138 3103 
Q 1681 3103 1420 2742 
Q 1159 2381 1159 1747 
Q 1159 1113 1420 752 
Q 1681 391 2138 391 
Q 2594 391 2855 752 
Q 3116 1113 3116 1747 
z
M 1159 2969 
Q 1341 3281 1617 3432 
Q 1894 3584 2278 3584 
Q 2916 3584 3314 3078 
Q 3713 2572 3713 1747 
Q 3713 922 3314 415 
Q 2916 -91 2278 -91 
Q 1894 -91 1617 61 
Q 1341 213 1159 525 
L 1159 0 
L 581 0 
L 581 4863 
L 1159 4863 
L 1159 2969 
z
" transform="scale(0.015625)"/>
      <path id="DejaVuSans-3d" d="M 678 2906 
L 4684 2906 
L 4684 2381 
L 678 2381 
L 678 2906 
z
M 678 1631 
L 4684 1631 
L 4684 1100 
L 678 1100 
L 678 1631 
z
" transform="scale(0.015625)"/>
     </defs>
     <use xlink:href="#DejaVuSans-57"/>
     <use xlink:href="#DejaVuSans-69" x="96.626953"/>
     <use xlink:href="#DejaVuSans-74" x="124.410156"/>
     <use xlink:href="#DejaVuSans-68" x="163.619141"/>
     <use xlink:href="#DejaVuSans-20" x="226.998047"/>
     <use xlink:href="#DejaVuSans-62" x="258.785156"/>
     <use xlink:href="#DejaVuSans-69" x="322.261719"/>
     <use xlink:href="#DejaVuSans-61" x="350.044922"/>
     <use xlink:href="#DejaVuSans-73" x="411.324219"/>
     <use xlink:href="#DejaVuSans-20" x="463.423828"/>
     <use xlink:href="#DejaVuSans-3d" x="495.210938"/>
     <use xlink:href="#DejaVuSans-20" x="579"/>
     <use xlink:href="#DejaVuSans-31" x="610.787109"/>
     <use xlink:href="#DejaVuSans-30" x="674.410156"/>
     <use xlink:href="#DejaVuSans-30" x="738.033203"/>
    </g>
   </g>
  </g>
 </g>
 <defs>
  <clipPath id="p03ef84d46f">
   <rect x="57.6" y="41.472" width="357.12" height="266.112"/>
  </clipPath>
 </defs>
</svg>
