<?xml version="1.0" encoding="utf-8" standalone="no"?>
<!DOCTYPE svg PUBLIC "-//W3C//DTD SVG 1.1//EN"
  "http://www.w3.org/Graphics/SVG/1.1/DTD/svg11.dtd">
<svg xmlns:xlink="http://www.w3.org/1999/xlink" width="460.8pt" height="345.6pt" viewBox="0 0 460.8 345.6" xmlns="http://www.w3.org/2000/svg" version="1.1">
 <metadata>
  <rdf:RDF xmlns:dc="http://purl.org/dc/elements/1.1/" xmlns:cc="http://creativecommons.org/ns#" xmlns:rdf="http://www.w3.org/1999/02/22-rdf-syntax-ns#">
   <cc:Work>
    <dc:type rdf:resource="http://purl.org/dc/dcmitype/StillImage"/>
    <dc:date>2024-01-10T13:51:33.614438</dc:date>
    <dc:format>image/svg+xml</dc:format>
    <dc:creator>
     <cc:Agent>
      <dc:title>Matplotlib v3.8.1, https://matplotlib.org/</dc:title>
     </cc:Agent>
    </dc:creator>
   </cc:Work>
  </rdf:RDF>
 </metadata>
 <defs>
  <style type="text/css">*{stroke-linejoin: round; stroke-linecap: butt}</style>
 </defs>
 <g id="figure_1">
  <g id="patch_1">
   <path d="M 0 345.6 
L 460.8 345.6 
L 460.8 0 
L 0 0 
z
" style="fill: #ffffff"/>
  </g>
  <g id="axes_1">
   <g id="patch_2">
    <path d="M 57.6 307.584 
L 414.72 307.584 
L 414.72 41.472 
L 57.6 41.472 
z
" style="fill: #ffffff"/>
   </g>
   <g id="matplotlib.axis_1">
    <g id="xtick_1">
     <g id="line2d_1">
      <defs>
       <path id="m5fa5700236" d="M 0 0 
L 0 3.5 
" style="stroke: #000000; stroke-width: 0.8"/>
      </defs>
      <g>
       <use xlink:href="#m5fa5700236" x="73.832727" y="307.584" style="stroke: #000000; stroke-width: 0.8"/>
      </g>
     </g>
     <g id="text_1">
      <!-- 0 -->
      <g transform="translate(70.651477 322.182437) scale(0.1 -0.1)">
       <defs>
        <path id="DejaVuSans-30" d="M 2034 4250 
Q 1547 4250 1301 3770 
Q 1056 3291 1056 2328 
Q 1056 1369 1301 889 
Q 1547 409 2034 409 
Q 2525 409 2770 889 
Q 3016 1369 3016 2328 
Q 3016 3291 2770 3770 
Q 2525 4250 2034 4250 
z
M 2034 4750 
Q 2819 4750 3233 4129 
Q 3647 3509 3647 2328 
Q 3647 1150 3233 529 
Q 2819 -91 2034 -91 
Q 1250 -91 836 529 
Q 422 1150 422 2328 
Q 422 3509 836 4129 
Q 1250 4750 2034 4750 
z
" transform="scale(0.015625)"/>
       </defs>
       <use xlink:href="#DejaVuSans-30"/>
      </g>
     </g>
    </g>
    <g id="xtick_2">
     <g id="line2d_2">
      <g>
       <use xlink:href="#m5fa5700236" x="139.419504" y="307.584" style="stroke: #000000; stroke-width: 0.8"/>
      </g>
     </g>
     <g id="text_2">
      <!-- 20 -->
      <g transform="translate(133.057004 322.182437) scale(0.1 -0.1)">
       <defs>
        <path id="DejaVuSans-32" d="M 1228 531 
L 3431 531 
L 3431 0 
L 469 0 
L 469 531 
Q 828 903 1448 1529 
Q 2069 2156 2228 2338 
Q 2531 2678 2651 2914 
Q 2772 3150 2772 3378 
Q 2772 3750 2511 3984 
Q 2250 4219 1831 4219 
Q 1534 4219 1204 4116 
Q 875 4013 500 3803 
L 500 4441 
Q 881 4594 1212 4672 
Q 1544 4750 1819 4750 
Q 2544 4750 2975 4387 
Q 3406 4025 3406 3419 
Q 3406 3131 3298 2873 
Q 3191 2616 2906 2266 
Q 2828 2175 2409 1742 
Q 1991 1309 1228 531 
z
" transform="scale(0.015625)"/>
       </defs>
       <use xlink:href="#DejaVuSans-32"/>
       <use xlink:href="#DejaVuSans-30" x="63.623047"/>
      </g>
     </g>
    </g>
    <g id="xtick_3">
     <g id="line2d_3">
      <g>
       <use xlink:href="#m5fa5700236" x="205.006281" y="307.584" style="stroke: #000000; stroke-width: 0.8"/>
      </g>
     </g>
     <g id="text_3">
      <!-- 40 -->
      <g transform="translate(198.643781 322.182437) scale(0.1 -0.1)">
       <defs>
        <path id="DejaVuSans-34" d="M 2419 4116 
L 825 1625 
L 2419 1625 
L 2419 4116 
z
M 2253 4666 
L 3047 4666 
L 3047 1625 
L 3713 1625 
L 3713 1100 
L 3047 1100 
L 3047 0 
L 2419 0 
L 2419 1100 
L 313 1100 
L 313 1709 
L 2253 4666 
z
" transform="scale(0.015625)"/>
       </defs>
       <use xlink:href="#DejaVuSans-34"/>
       <use xlink:href="#DejaVuSans-30" x="63.623047"/>
      </g>
     </g>
    </g>
    <g id="xtick_4">
     <g id="line2d_4">
      <g>
       <use xlink:href="#m5fa5700236" x="270.593058" y="307.584" style="stroke: #000000; stroke-width: 0.8"/>
      </g>
     </g>
     <g id="text_4">
      <!-- 60 -->
      <g transform="translate(264.230558 322.182437) scale(0.1 -0.1)">
       <defs>
        <path id="DejaVuSans-36" d="M 2113 2584 
Q 1688 2584 1439 2293 
Q 1191 2003 1191 1497 
Q 1191 994 1439 701 
Q 1688 409 2113 409 
Q 2538 409 2786 701 
Q 3034 994 3034 1497 
Q 3034 2003 2786 2293 
Q 2538 2584 2113 2584 
z
M 3366 4563 
L 3366 3988 
Q 3128 4100 2886 4159 
Q 2644 4219 2406 4219 
Q 1781 4219 1451 3797 
Q 1122 3375 1075 2522 
Q 1259 2794 1537 2939 
Q 1816 3084 2150 3084 
Q 2853 3084 3261 2657 
Q 3669 2231 3669 1497 
Q 3669 778 3244 343 
Q 2819 -91 2113 -91 
Q 1303 -91 875 529 
Q 447 1150 447 2328 
Q 447 3434 972 4092 
Q 1497 4750 2381 4750 
Q 2619 4750 2861 4703 
Q 3103 4656 3366 4563 
z
" transform="scale(0.015625)"/>
       </defs>
       <use xlink:href="#DejaVuSans-36"/>
       <use xlink:href="#DejaVuSans-30" x="63.623047"/>
      </g>
     </g>
    </g>
    <g id="xtick_5">
     <g id="line2d_5">
      <g>
       <use xlink:href="#m5fa5700236" x="336.179835" y="307.584" style="stroke: #000000; stroke-width: 0.8"/>
      </g>
     </g>
     <g id="text_5">
      <!-- 80 -->
      <g transform="translate(329.817335 322.182437) scale(0.1 -0.1)">
       <defs>
        <path id="DejaVuSans-38" d="M 2034 2216 
Q 1584 2216 1326 1975 
Q 1069 1734 1069 1313 
Q 1069 891 1326 650 
Q 1584 409 2034 409 
Q 2484 409 2743 651 
Q 3003 894 3003 1313 
Q 3003 1734 2745 1975 
Q 2488 2216 2034 2216 
z
M 1403 2484 
Q 997 2584 770 2862 
Q 544 3141 544 3541 
Q 544 4100 942 4425 
Q 1341 4750 2034 4750 
Q 2731 4750 3128 4425 
Q 3525 4100 3525 3541 
Q 3525 3141 3298 2862 
Q 3072 2584 2669 2484 
Q 3125 2378 3379 2068 
Q 3634 1759 3634 1313 
Q 3634 634 3220 271 
Q 2806 -91 2034 -91 
Q 1263 -91 848 271 
Q 434 634 434 1313 
Q 434 1759 690 2068 
Q 947 2378 1403 2484 
z
M 1172 3481 
Q 1172 3119 1398 2916 
Q 1625 2713 2034 2713 
Q 2441 2713 2670 2916 
Q 2900 3119 2900 3481 
Q 2900 3844 2670 4047 
Q 2441 4250 2034 4250 
Q 1625 4250 1398 4047 
Q 1172 3844 1172 3481 
z
" transform="scale(0.015625)"/>
       </defs>
       <use xlink:href="#DejaVuSans-38"/>
       <use xlink:href="#DejaVuSans-30" x="63.623047"/>
      </g>
     </g>
    </g>
    <g id="xtick_6">
     <g id="line2d_6">
      <g>
       <use xlink:href="#m5fa5700236" x="401.766612" y="307.584" style="stroke: #000000; stroke-width: 0.8"/>
      </g>
     </g>
     <g id="text_6">
      <!-- 100 -->
      <g transform="translate(392.222862 322.182437) scale(0.1 -0.1)">
       <defs>
        <path id="DejaVuSans-31" d="M 794 531 
L 1825 531 
L 1825 4091 
L 703 3866 
L 703 4441 
L 1819 4666 
L 2450 4666 
L 2450 531 
L 3481 531 
L 3481 0 
L 794 0 
L 794 531 
z
" transform="scale(0.015625)"/>
       </defs>
       <use xlink:href="#DejaVuSans-31"/>
       <use xlink:href="#DejaVuSans-30" x="63.623047"/>
       <use xlink:href="#DejaVuSans-30" x="127.246094"/>
      </g>
     </g>
    </g>
    <g id="text_7">
     <!-- Individuals -->
     <g transform="translate(209.20375 335.860562) scale(0.1 -0.1)">
      <defs>
       <path id="DejaVuSans-49" d="M 628 4666 
L 1259 4666 
L 1259 0 
L 628 0 
L 628 4666 
z
" transform="scale(0.015625)"/>
       <path id="DejaVuSans-6e" d="M 3513 2113 
L 3513 0 
L 2938 0 
L 2938 2094 
Q 2938 2591 2744 2837 
Q 2550 3084 2163 3084 
Q 1697 3084 1428 2787 
Q 1159 2491 1159 1978 
L 1159 0 
L 581 0 
L 581 3500 
L 1159 3500 
L 1159 2956 
Q 1366 3272 1645 3428 
Q 1925 3584 2291 3584 
Q 2894 3584 3203 3211 
Q 3513 2838 3513 2113 
z
" transform="scale(0.015625)"/>
       <path id="DejaVuSans-64" d="M 2906 2969 
L 2906 4863 
L 3481 4863 
L 3481 0 
L 2906 0 
L 2906 525 
Q 2725 213 2448 61 
Q 2172 -91 1784 -91 
Q 1150 -91 751 415 
Q 353 922 353 1747 
Q 353 2572 751 3078 
Q 1150 3584 1784 3584 
Q 2172 3584 2448 3432 
Q 2725 3281 2906 2969 
z
M 947 1747 
Q 947 1113 1208 752 
Q 1469 391 1925 391 
Q 2381 391 2643 752 
Q 2906 1113 2906 1747 
Q 2906 2381 2643 2742 
Q 2381 3103 1925 3103 
Q 1469 3103 1208 2742 
Q 947 2381 947 1747 
z
" transform="scale(0.015625)"/>
       <path id="DejaVuSans-69" d="M 603 3500 
L 1178 3500 
L 1178 0 
L 603 0 
L 603 3500 
z
M 603 4863 
L 1178 4863 
L 1178 4134 
L 603 4134 
L 603 4863 
z
" transform="scale(0.015625)"/>
       <path id="DejaVuSans-76" d="M 191 3500 
L 800 3500 
L 1894 563 
L 2988 3500 
L 3597 3500 
L 2284 0 
L 1503 0 
L 191 3500 
z
" transform="scale(0.015625)"/>
       <path id="DejaVuSans-75" d="M 544 1381 
L 544 3500 
L 1119 3500 
L 1119 1403 
Q 1119 906 1312 657 
Q 1506 409 1894 409 
Q 2359 409 2629 706 
Q 2900 1003 2900 1516 
L 2900 3500 
L 3475 3500 
L 3475 0 
L 2900 0 
L 2900 538 
Q 2691 219 2414 64 
Q 2138 -91 1772 -91 
Q 1169 -91 856 284 
Q 544 659 544 1381 
z
M 1991 3584 
L 1991 3584 
z
" transform="scale(0.015625)"/>
       <path id="DejaVuSans-61" d="M 2194 1759 
Q 1497 1759 1228 1600 
Q 959 1441 959 1056 
Q 959 750 1161 570 
Q 1363 391 1709 391 
Q 2188 391 2477 730 
Q 2766 1069 2766 1631 
L 2766 1759 
L 2194 1759 
z
M 3341 1997 
L 3341 0 
L 2766 0 
L 2766 531 
Q 2569 213 2275 61 
Q 1981 -91 1556 -91 
Q 1019 -91 701 211 
Q 384 513 384 1019 
Q 384 1609 779 1909 
Q 1175 2209 1959 2209 
L 2766 2209 
L 2766 2266 
Q 2766 2663 2505 2880 
Q 2244 3097 1772 3097 
Q 1472 3097 1187 3025 
Q 903 2953 641 2809 
L 641 3341 
Q 956 3463 1253 3523 
Q 1550 3584 1831 3584 
Q 2591 3584 2966 3190 
Q 3341 2797 3341 1997 
z
" transform="scale(0.015625)"/>
       <path id="DejaVuSans-6c" d="M 603 4863 
L 1178 4863 
L 1178 0 
L 603 0 
L 603 4863 
z
" transform="scale(0.015625)"/>
       <path id="DejaVuSans-73" d="M 2834 3397 
L 2834 2853 
Q 2591 2978 2328 3040 
Q 2066 3103 1784 3103 
Q 1356 3103 1142 2972 
Q 928 2841 928 2578 
Q 928 2378 1081 2264 
Q 1234 2150 1697 2047 
L 1894 2003 
Q 2506 1872 2764 1633 
Q 3022 1394 3022 966 
Q 3022 478 2636 193 
Q 2250 -91 1575 -91 
Q 1294 -91 989 -36 
Q 684 19 347 128 
L 347 722 
Q 666 556 975 473 
Q 1284 391 1588 391 
Q 1994 391 2212 530 
Q 2431 669 2431 922 
Q 2431 1156 2273 1281 
Q 2116 1406 1581 1522 
L 1381 1569 
Q 847 1681 609 1914 
Q 372 2147 372 2553 
Q 372 3047 722 3315 
Q 1072 3584 1716 3584 
Q 2034 3584 2315 3537 
Q 2597 3491 2834 3397 
z
" transform="scale(0.015625)"/>
      </defs>
      <use xlink:href="#DejaVuSans-49"/>
      <use xlink:href="#DejaVuSans-6e" x="29.492188"/>
      <use xlink:href="#DejaVuSans-64" x="92.871094"/>
      <use xlink:href="#DejaVuSans-69" x="156.347656"/>
      <use xlink:href="#DejaVuSans-76" x="184.130859"/>
      <use xlink:href="#DejaVuSans-69" x="243.310547"/>
      <use xlink:href="#DejaVuSans-64" x="271.09375"/>
      <use xlink:href="#DejaVuSans-75" x="334.570312"/>
      <use xlink:href="#DejaVuSans-61" x="397.949219"/>
      <use xlink:href="#DejaVuSans-6c" x="459.228516"/>
      <use xlink:href="#DejaVuSans-73" x="487.011719"/>
     </g>
    </g>
   </g>
   <g id="matplotlib.axis_2">
    <g id="ytick_1">
     <g id="line2d_7">
      <defs>
       <path id="mf288cd6af7" d="M 0 0 
L -3.5 0 
" style="stroke: #000000; stroke-width: 0.8"/>
      </defs>
      <g>
       <use xlink:href="#mf288cd6af7" x="57.6" y="264.748702" style="stroke: #000000; stroke-width: 0.8"/>
      </g>
     </g>
     <g id="text_8">
      <!-- 0.1 -->
      <g transform="translate(34.696875 268.547921) scale(0.1 -0.1)">
       <defs>
        <path id="DejaVuSans-2e" d="M 684 794 
L 1344 794 
L 1344 0 
L 684 0 
L 684 794 
z
" transform="scale(0.015625)"/>
       </defs>
       <use xlink:href="#DejaVuSans-30"/>
       <use xlink:href="#DejaVuSans-2e" x="63.623047"/>
       <use xlink:href="#DejaVuSans-31" x="95.410156"/>
      </g>
     </g>
    </g>
    <g id="ytick_2">
     <g id="line2d_8">
      <g>
       <use xlink:href="#mf288cd6af7" x="57.6" y="221.331615" style="stroke: #000000; stroke-width: 0.8"/>
      </g>
     </g>
     <g id="text_9">
      <!-- 0.2 -->
      <g transform="translate(34.696875 225.130833) scale(0.1 -0.1)">
       <use xlink:href="#DejaVuSans-30"/>
       <use xlink:href="#DejaVuSans-2e" x="63.623047"/>
       <use xlink:href="#DejaVuSans-32" x="95.410156"/>
      </g>
     </g>
    </g>
    <g id="ytick_3">
     <g id="line2d_9">
      <g>
       <use xlink:href="#mf288cd6af7" x="57.6" y="177.914527" style="stroke: #000000; stroke-width: 0.8"/>
      </g>
     </g>
     <g id="text_10">
      <!-- 0.3 -->
      <g transform="translate(34.696875 181.713746) scale(0.1 -0.1)">
       <defs>
        <path id="DejaVuSans-33" d="M 2597 2516 
Q 3050 2419 3304 2112 
Q 3559 1806 3559 1356 
Q 3559 666 3084 287 
Q 2609 -91 1734 -91 
Q 1441 -91 1130 -33 
Q 819 25 488 141 
L 488 750 
Q 750 597 1062 519 
Q 1375 441 1716 441 
Q 2309 441 2620 675 
Q 2931 909 2931 1356 
Q 2931 1769 2642 2001 
Q 2353 2234 1838 2234 
L 1294 2234 
L 1294 2753 
L 1863 2753 
Q 2328 2753 2575 2939 
Q 2822 3125 2822 3475 
Q 2822 3834 2567 4026 
Q 2313 4219 1838 4219 
Q 1578 4219 1281 4162 
Q 984 4106 628 3988 
L 628 4550 
Q 988 4650 1302 4700 
Q 1616 4750 1894 4750 
Q 2613 4750 3031 4423 
Q 3450 4097 3450 3541 
Q 3450 3153 3228 2886 
Q 3006 2619 2597 2516 
z
" transform="scale(0.015625)"/>
       </defs>
       <use xlink:href="#DejaVuSans-30"/>
       <use xlink:href="#DejaVuSans-2e" x="63.623047"/>
       <use xlink:href="#DejaVuSans-33" x="95.410156"/>
      </g>
     </g>
    </g>
    <g id="ytick_4">
     <g id="line2d_10">
      <g>
       <use xlink:href="#mf288cd6af7" x="57.6" y="134.497439" style="stroke: #000000; stroke-width: 0.8"/>
      </g>
     </g>
     <g id="text_11">
      <!-- 0.4 -->
      <g transform="translate(34.696875 138.296658) scale(0.1 -0.1)">
       <use xlink:href="#DejaVuSans-30"/>
       <use xlink:href="#DejaVuSans-2e" x="63.623047"/>
       <use xlink:href="#DejaVuSans-34" x="95.410156"/>
      </g>
     </g>
    </g>
    <g id="ytick_5">
     <g id="line2d_11">
      <g>
       <use xlink:href="#mf288cd6af7" x="57.6" y="91.080352" style="stroke: #000000; stroke-width: 0.8"/>
      </g>
     </g>
     <g id="text_12">
      <!-- 0.5 -->
      <g transform="translate(34.696875 94.87957) scale(0.1 -0.1)">
       <defs>
        <path id="DejaVuSans-35" d="M 691 4666 
L 3169 4666 
L 3169 4134 
L 1269 4134 
L 1269 2991 
Q 1406 3038 1543 3061 
Q 1681 3084 1819 3084 
Q 2600 3084 3056 2656 
Q 3513 2228 3513 1497 
Q 3513 744 3044 326 
Q 2575 -91 1722 -91 
Q 1428 -91 1123 -41 
Q 819 9 494 109 
L 494 744 
Q 775 591 1075 516 
Q 1375 441 1709 441 
Q 2250 441 2565 725 
Q 2881 1009 2881 1497 
Q 2881 1984 2565 2268 
Q 2250 2553 1709 2553 
Q 1456 2553 1204 2497 
Q 953 2441 691 2322 
L 691 4666 
z
" transform="scale(0.015625)"/>
       </defs>
       <use xlink:href="#DejaVuSans-30"/>
       <use xlink:href="#DejaVuSans-2e" x="63.623047"/>
       <use xlink:href="#DejaVuSans-35" x="95.410156"/>
      </g>
     </g>
    </g>
    <g id="ytick_6">
     <g id="line2d_12">
      <g>
       <use xlink:href="#mf288cd6af7" x="57.6" y="47.663264" style="stroke: #000000; stroke-width: 0.8"/>
      </g>
     </g>
     <g id="text_13">
      <!-- 0.6 -->
      <g transform="translate(34.696875 51.462483) scale(0.1 -0.1)">
       <use xlink:href="#DejaVuSans-30"/>
       <use xlink:href="#DejaVuSans-2e" x="63.623047"/>
       <use xlink:href="#DejaVuSans-36" x="95.410156"/>
      </g>
     </g>
    </g>
    <g id="text_14">
     <!-- accuracy -->
     <g transform="translate(28.617187 197.087375) rotate(-90) scale(0.1 -0.1)">
      <defs>
       <path id="DejaVuSans-63" d="M 3122 3366 
L 3122 2828 
Q 2878 2963 2633 3030 
Q 2388 3097 2138 3097 
Q 1578 3097 1268 2742 
Q 959 2388 959 1747 
Q 959 1106 1268 751 
Q 1578 397 2138 397 
Q 2388 397 2633 464 
Q 2878 531 3122 666 
L 3122 134 
Q 2881 22 2623 -34 
Q 2366 -91 2075 -91 
Q 1284 -91 818 406 
Q 353 903 353 1747 
Q 353 2603 823 3093 
Q 1294 3584 2113 3584 
Q 2378 3584 2631 3529 
Q 2884 3475 3122 3366 
z
" transform="scale(0.015625)"/>
       <path id="DejaVuSans-72" d="M 2631 2963 
Q 2534 3019 2420 3045 
Q 2306 3072 2169 3072 
Q 1681 3072 1420 2755 
Q 1159 2438 1159 1844 
L 1159 0 
L 581 0 
L 581 3500 
L 1159 3500 
L 1159 2956 
Q 1341 3275 1631 3429 
Q 1922 3584 2338 3584 
Q 2397 3584 2469 3576 
Q 2541 3569 2628 3553 
L 2631 2963 
z
" transform="scale(0.015625)"/>
       <path id="DejaVuSans-79" d="M 2059 -325 
Q 1816 -950 1584 -1140 
Q 1353 -1331 966 -1331 
L 506 -1331 
L 506 -850 
L 844 -850 
Q 1081 -850 1212 -737 
Q 1344 -625 1503 -206 
L 1606 56 
L 191 3500 
L 800 3500 
L 1894 763 
L 2988 3500 
L 3597 3500 
L 2059 -325 
z
" transform="scale(0.015625)"/>
      </defs>
      <use xlink:href="#DejaVuSans-61"/>
      <use xlink:href="#DejaVuSans-63" x="61.279297"/>
      <use xlink:href="#DejaVuSans-63" x="116.259766"/>
      <use xlink:href="#DejaVuSans-75" x="171.240234"/>
      <use xlink:href="#DejaVuSans-72" x="234.619141"/>
      <use xlink:href="#DejaVuSans-61" x="275.732422"/>
      <use xlink:href="#DejaVuSans-63" x="337.011719"/>
      <use xlink:href="#DejaVuSans-79" x="391.992188"/>
     </g>
    </g>
   </g>
   <g id="line2d_13">
    <path d="M 73.832727 295.488 
L 77.112066 277.860664 
L 80.391405 158.593921 
L 83.670744 120.343472 
L 86.950083 127.98488 
L 90.229421 100.936036 
L 93.50876 102.108298 
L 96.788099 100.762364 
L 100.067438 75.146276 
L 103.346777 106.580249 
L 106.626116 141.313925 
L 109.905455 79.618228 
L 113.184793 73.322766 
L 116.464132 116.349097 
L 119.743471 81.354915 
L 123.02281 94.33663 
L 126.302149 81.962751 
L 129.581488 117.912113 
L 132.860826 125.90085 
L 136.140165 108.230101 
L 139.419504 94.076136 
L 142.698843 90.081748 
L 145.978182 90.602762 
L 149.257521 108.881361 
L 152.53686 119.214622 
L 155.816198 100.936036 
L 159.095537 107.926182 
L 162.374876 102.499051 
L 165.654215 121.255227 
L 168.933554 90.646186 
L 172.212893 143.311106 
L 175.492231 92.643367 
L 178.77157 81.311516 
L 182.050909 86.999141 
L 185.330248 106.059248 
L 188.609587 112.354723 
L 191.888926 86.34788 
L 195.168264 105.321152 
L 198.447603 116.956934 
L 201.726942 126.552111 
L 205.006281 89.517336 
L 208.28562 132.41342 
L 211.564959 128.679552 
L 214.844298 71.803175 
L 218.123636 114.09141 
L 221.402975 123.339244 
L 224.682314 91.210599 
L 227.961653 75.88436 
L 231.240992 123.55634 
L 234.520331 68.894213 
L 237.799669 67.895636 
L 241.079008 105.451412 
L 244.358347 123.252408 
L 247.637686 115.56759 
L 250.917025 106.667085 
L 254.196364 106.276331 
L 257.475702 89.387089 
L 260.755041 69.632323 
L 264.03438 102.933217 
L 267.313719 119.605376 
L 270.593058 105.27774 
L 273.872397 111.182461 
L 277.151736 111.356132 
L 280.431074 107.188086 
L 283.710413 89.387089 
L 286.989752 112.658641 
L 290.269091 112.528394 
L 293.54843 124.641766 
L 296.827769 108.099854 
L 300.107107 86.217633 
L 303.386446 88.822651 
L 306.665785 86.651799 
L 309.945124 88.43191 
L 313.224463 85.349303 
L 316.503802 95.725975 
L 319.78314 111.139049 
L 323.062479 130.025485 
L 326.341818 113.526984 
L 329.621157 101.587284 
L 332.900496 112.224476 
L 336.179835 103.020052 
L 339.459174 55.087591 
L 342.738512 97.89684 
L 346.017851 82.353518 
L 349.29719 121.081556 
L 352.576529 74.104274 
L 355.855868 111.225885 
L 359.135207 67.808787 
L 362.414545 53.568 
L 365.693884 103.237135 
L 368.973223 93.859041 
L 372.252562 108.447183 
L 375.531901 98.331005 
L 378.81124 104.365985 
L 382.090579 77.447375 
L 385.369917 72.020245 
L 388.649256 72.801753 
L 391.928595 98.852006 
L 395.207934 88.649005 
L 398.487273 94.206383 
" clip-path="url(#p0ba9283561)" style="fill: none; stroke: #1f77b4; stroke-width: 1.5; stroke-linecap: square"/>
    <defs>
     <path id="m6e3268670f" d="M 0 3 
C 0.795609 3 1.55874 2.683901 2.12132 2.12132 
C 2.683901 1.55874 3 0.795609 3 0 
C 3 -0.795609 2.683901 -1.55874 2.12132 -2.12132 
C 1.55874 -2.683901 0.795609 -3 0 -3 
C -0.795609 -3 -1.55874 -2.683901 -2.12132 -2.12132 
C -2.683901 -1.55874 -3 -0.795609 -3 0 
C -3 0.795609 -2.683901 1.55874 -2.12132 2.12132 
C -1.55874 2.683901 -0.795609 3 0 3 
z
" style="stroke: #1f77b4"/>
    </defs>
    <g clip-path="url(#p0ba9283561)">
     <use xlink:href="#m6e3268670f" x="73.832727" y="295.488" style="fill: #1f77b4; stroke: #1f77b4"/>
     <use xlink:href="#m6e3268670f" x="77.112066" y="277.860664" style="fill: #1f77b4; stroke: #1f77b4"/>
     <use xlink:href="#m6e3268670f" x="80.391405" y="158.593921" style="fill: #1f77b4; stroke: #1f77b4"/>
     <use xlink:href="#m6e3268670f" x="83.670744" y="120.343472" style="fill: #1f77b4; stroke: #1f77b4"/>
     <use xlink:href="#m6e3268670f" x="86.950083" y="127.98488" style="fill: #1f77b4; stroke: #1f77b4"/>
     <use xlink:href="#m6e3268670f" x="90.229421" y="100.936036" style="fill: #1f77b4; stroke: #1f77b4"/>
     <use xlink:href="#m6e3268670f" x="93.50876" y="102.108298" style="fill: #1f77b4; stroke: #1f77b4"/>
     <use xlink:href="#m6e3268670f" x="96.788099" y="100.762364" style="fill: #1f77b4; stroke: #1f77b4"/>
     <use xlink:href="#m6e3268670f" x="100.067438" y="75.146276" style="fill: #1f77b4; stroke: #1f77b4"/>
     <use xlink:href="#m6e3268670f" x="103.346777" y="106.580249" style="fill: #1f77b4; stroke: #1f77b4"/>
     <use xlink:href="#m6e3268670f" x="106.626116" y="141.313925" style="fill: #1f77b4; stroke: #1f77b4"/>
     <use xlink:href="#m6e3268670f" x="109.905455" y="79.618228" style="fill: #1f77b4; stroke: #1f77b4"/>
     <use xlink:href="#m6e3268670f" x="113.184793" y="73.322766" style="fill: #1f77b4; stroke: #1f77b4"/>
     <use xlink:href="#m6e3268670f" x="116.464132" y="116.349097" style="fill: #1f77b4; stroke: #1f77b4"/>
     <use xlink:href="#m6e3268670f" x="119.743471" y="81.354915" style="fill: #1f77b4; stroke: #1f77b4"/>
     <use xlink:href="#m6e3268670f" x="123.02281" y="94.33663" style="fill: #1f77b4; stroke: #1f77b4"/>
     <use xlink:href="#m6e3268670f" x="126.302149" y="81.962751" style="fill: #1f77b4; stroke: #1f77b4"/>
     <use xlink:href="#m6e3268670f" x="129.581488" y="117.912113" style="fill: #1f77b4; stroke: #1f77b4"/>
     <use xlink:href="#m6e3268670f" x="132.860826" y="125.90085" style="fill: #1f77b4; stroke: #1f77b4"/>
     <use xlink:href="#m6e3268670f" x="136.140165" y="108.230101" style="fill: #1f77b4; stroke: #1f77b4"/>
     <use xlink:href="#m6e3268670f" x="139.419504" y="94.076136" style="fill: #1f77b4; stroke: #1f77b4"/>
     <use xlink:href="#m6e3268670f" x="142.698843" y="90.081748" style="fill: #1f77b4; stroke: #1f77b4"/>
     <use xlink:href="#m6e3268670f" x="145.978182" y="90.602762" style="fill: #1f77b4; stroke: #1f77b4"/>
     <use xlink:href="#m6e3268670f" x="149.257521" y="108.881361" style="fill: #1f77b4; stroke: #1f77b4"/>
     <use xlink:href="#m6e3268670f" x="152.53686" y="119.214622" style="fill: #1f77b4; stroke: #1f77b4"/>
     <use xlink:href="#m6e3268670f" x="155.816198" y="100.936036" style="fill: #1f77b4; stroke: #1f77b4"/>
     <use xlink:href="#m6e3268670f" x="159.095537" y="107.926182" style="fill: #1f77b4; stroke: #1f77b4"/>
     <use xlink:href="#m6e3268670f" x="162.374876" y="102.499051" style="fill: #1f77b4; stroke: #1f77b4"/>
     <use xlink:href="#m6e3268670f" x="165.654215" y="121.255227" style="fill: #1f77b4; stroke: #1f77b4"/>
     <use xlink:href="#m6e3268670f" x="168.933554" y="90.646186" style="fill: #1f77b4; stroke: #1f77b4"/>
     <use xlink:href="#m6e3268670f" x="172.212893" y="143.311106" style="fill: #1f77b4; stroke: #1f77b4"/>
     <use xlink:href="#m6e3268670f" x="175.492231" y="92.643367" style="fill: #1f77b4; stroke: #1f77b4"/>
     <use xlink:href="#m6e3268670f" x="178.77157" y="81.311516" style="fill: #1f77b4; stroke: #1f77b4"/>
     <use xlink:href="#m6e3268670f" x="182.050909" y="86.999141" style="fill: #1f77b4; stroke: #1f77b4"/>
     <use xlink:href="#m6e3268670f" x="185.330248" y="106.059248" style="fill: #1f77b4; stroke: #1f77b4"/>
     <use xlink:href="#m6e3268670f" x="188.609587" y="112.354723" style="fill: #1f77b4; stroke: #1f77b4"/>
     <use xlink:href="#m6e3268670f" x="191.888926" y="86.34788" style="fill: #1f77b4; stroke: #1f77b4"/>
     <use xlink:href="#m6e3268670f" x="195.168264" y="105.321152" style="fill: #1f77b4; stroke: #1f77b4"/>
     <use xlink:href="#m6e3268670f" x="198.447603" y="116.956934" style="fill: #1f77b4; stroke: #1f77b4"/>
     <use xlink:href="#m6e3268670f" x="201.726942" y="126.552111" style="fill: #1f77b4; stroke: #1f77b4"/>
     <use xlink:href="#m6e3268670f" x="205.006281" y="89.517336" style="fill: #1f77b4; stroke: #1f77b4"/>
     <use xlink:href="#m6e3268670f" x="208.28562" y="132.41342" style="fill: #1f77b4; stroke: #1f77b4"/>
     <use xlink:href="#m6e3268670f" x="211.564959" y="128.679552" style="fill: #1f77b4; stroke: #1f77b4"/>
     <use xlink:href="#m6e3268670f" x="214.844298" y="71.803175" style="fill: #1f77b4; stroke: #1f77b4"/>
     <use xlink:href="#m6e3268670f" x="218.123636" y="114.09141" style="fill: #1f77b4; stroke: #1f77b4"/>
     <use xlink:href="#m6e3268670f" x="221.402975" y="123.339244" style="fill: #1f77b4; stroke: #1f77b4"/>
     <use xlink:href="#m6e3268670f" x="224.682314" y="91.210599" style="fill: #1f77b4; stroke: #1f77b4"/>
     <use xlink:href="#m6e3268670f" x="227.961653" y="75.88436" style="fill: #1f77b4; stroke: #1f77b4"/>
     <use xlink:href="#m6e3268670f" x="231.240992" y="123.55634" style="fill: #1f77b4; stroke: #1f77b4"/>
     <use xlink:href="#m6e3268670f" x="234.520331" y="68.894213" style="fill: #1f77b4; stroke: #1f77b4"/>
     <use xlink:href="#m6e3268670f" x="237.799669" y="67.895636" style="fill: #1f77b4; stroke: #1f77b4"/>
     <use xlink:href="#m6e3268670f" x="241.079008" y="105.451412" style="fill: #1f77b4; stroke: #1f77b4"/>
     <use xlink:href="#m6e3268670f" x="244.358347" y="123.252408" style="fill: #1f77b4; stroke: #1f77b4"/>
     <use xlink:href="#m6e3268670f" x="247.637686" y="115.56759" style="fill: #1f77b4; stroke: #1f77b4"/>
     <use xlink:href="#m6e3268670f" x="250.917025" y="106.667085" style="fill: #1f77b4; stroke: #1f77b4"/>
     <use xlink:href="#m6e3268670f" x="254.196364" y="106.276331" style="fill: #1f77b4; stroke: #1f77b4"/>
     <use xlink:href="#m6e3268670f" x="257.475702" y="89.387089" style="fill: #1f77b4; stroke: #1f77b4"/>
     <use xlink:href="#m6e3268670f" x="260.755041" y="69.632323" style="fill: #1f77b4; stroke: #1f77b4"/>
     <use xlink:href="#m6e3268670f" x="264.03438" y="102.933217" style="fill: #1f77b4; stroke: #1f77b4"/>
     <use xlink:href="#m6e3268670f" x="267.313719" y="119.605376" style="fill: #1f77b4; stroke: #1f77b4"/>
     <use xlink:href="#m6e3268670f" x="270.593058" y="105.27774" style="fill: #1f77b4; stroke: #1f77b4"/>
     <use xlink:href="#m6e3268670f" x="273.872397" y="111.182461" style="fill: #1f77b4; stroke: #1f77b4"/>
     <use xlink:href="#m6e3268670f" x="277.151736" y="111.356132" style="fill: #1f77b4; stroke: #1f77b4"/>
     <use xlink:href="#m6e3268670f" x="280.431074" y="107.188086" style="fill: #1f77b4; stroke: #1f77b4"/>
     <use xlink:href="#m6e3268670f" x="283.710413" y="89.387089" style="fill: #1f77b4; stroke: #1f77b4"/>
     <use xlink:href="#m6e3268670f" x="286.989752" y="112.658641" style="fill: #1f77b4; stroke: #1f77b4"/>
     <use xlink:href="#m6e3268670f" x="290.269091" y="112.528394" style="fill: #1f77b4; stroke: #1f77b4"/>
     <use xlink:href="#m6e3268670f" x="293.54843" y="124.641766" style="fill: #1f77b4; stroke: #1f77b4"/>
     <use xlink:href="#m6e3268670f" x="296.827769" y="108.099854" style="fill: #1f77b4; stroke: #1f77b4"/>
     <use xlink:href="#m6e3268670f" x="300.107107" y="86.217633" style="fill: #1f77b4; stroke: #1f77b4"/>
     <use xlink:href="#m6e3268670f" x="303.386446" y="88.822651" style="fill: #1f77b4; stroke: #1f77b4"/>
     <use xlink:href="#m6e3268670f" x="306.665785" y="86.651799" style="fill: #1f77b4; stroke: #1f77b4"/>
     <use xlink:href="#m6e3268670f" x="309.945124" y="88.43191" style="fill: #1f77b4; stroke: #1f77b4"/>
     <use xlink:href="#m6e3268670f" x="313.224463" y="85.349303" style="fill: #1f77b4; stroke: #1f77b4"/>
     <use xlink:href="#m6e3268670f" x="316.503802" y="95.725975" style="fill: #1f77b4; stroke: #1f77b4"/>
     <use xlink:href="#m6e3268670f" x="319.78314" y="111.139049" style="fill: #1f77b4; stroke: #1f77b4"/>
     <use xlink:href="#m6e3268670f" x="323.062479" y="130.025485" style="fill: #1f77b4; stroke: #1f77b4"/>
     <use xlink:href="#m6e3268670f" x="326.341818" y="113.526984" style="fill: #1f77b4; stroke: #1f77b4"/>
     <use xlink:href="#m6e3268670f" x="329.621157" y="101.587284" style="fill: #1f77b4; stroke: #1f77b4"/>
     <use xlink:href="#m6e3268670f" x="332.900496" y="112.224476" style="fill: #1f77b4; stroke: #1f77b4"/>
     <use xlink:href="#m6e3268670f" x="336.179835" y="103.020052" style="fill: #1f77b4; stroke: #1f77b4"/>
     <use xlink:href="#m6e3268670f" x="339.459174" y="55.087591" style="fill: #1f77b4; stroke: #1f77b4"/>
     <use xlink:href="#m6e3268670f" x="342.738512" y="97.89684" style="fill: #1f77b4; stroke: #1f77b4"/>
     <use xlink:href="#m6e3268670f" x="346.017851" y="82.353518" style="fill: #1f77b4; stroke: #1f77b4"/>
     <use xlink:href="#m6e3268670f" x="349.29719" y="121.081556" style="fill: #1f77b4; stroke: #1f77b4"/>
     <use xlink:href="#m6e3268670f" x="352.576529" y="74.104274" style="fill: #1f77b4; stroke: #1f77b4"/>
     <use xlink:href="#m6e3268670f" x="355.855868" y="111.225885" style="fill: #1f77b4; stroke: #1f77b4"/>
     <use xlink:href="#m6e3268670f" x="359.135207" y="67.808787" style="fill: #1f77b4; stroke: #1f77b4"/>
     <use xlink:href="#m6e3268670f" x="362.414545" y="53.568" style="fill: #1f77b4; stroke: #1f77b4"/>
     <use xlink:href="#m6e3268670f" x="365.693884" y="103.237135" style="fill: #1f77b4; stroke: #1f77b4"/>
     <use xlink:href="#m6e3268670f" x="368.973223" y="93.859041" style="fill: #1f77b4; stroke: #1f77b4"/>
     <use xlink:href="#m6e3268670f" x="372.252562" y="108.447183" style="fill: #1f77b4; stroke: #1f77b4"/>
     <use xlink:href="#m6e3268670f" x="375.531901" y="98.331005" style="fill: #1f77b4; stroke: #1f77b4"/>
     <use xlink:href="#m6e3268670f" x="378.81124" y="104.365985" style="fill: #1f77b4; stroke: #1f77b4"/>
     <use xlink:href="#m6e3268670f" x="382.090579" y="77.447375" style="fill: #1f77b4; stroke: #1f77b4"/>
     <use xlink:href="#m6e3268670f" x="385.369917" y="72.020245" style="fill: #1f77b4; stroke: #1f77b4"/>
     <use xlink:href="#m6e3268670f" x="388.649256" y="72.801753" style="fill: #1f77b4; stroke: #1f77b4"/>
     <use xlink:href="#m6e3268670f" x="391.928595" y="98.852006" style="fill: #1f77b4; stroke: #1f77b4"/>
     <use xlink:href="#m6e3268670f" x="395.207934" y="88.649005" style="fill: #1f77b4; stroke: #1f77b4"/>
     <use xlink:href="#m6e3268670f" x="398.487273" y="94.206383" style="fill: #1f77b4; stroke: #1f77b4"/>
    </g>
   </g>
   <g id="patch_3">
    <path d="M 57.6 307.584 
L 57.6 41.472 
" style="fill: none; stroke: #000000; stroke-width: 0.8; stroke-linejoin: miter; stroke-linecap: square"/>
   </g>
   <g id="patch_4">
    <path d="M 414.72 307.584 
L 414.72 41.472 
" style="fill: none; stroke: #000000; stroke-width: 0.8; stroke-linejoin: miter; stroke-linecap: square"/>
   </g>
   <g id="patch_5">
    <path d="M 57.6 307.584 
L 414.72 307.584 
" style="fill: none; stroke: #000000; stroke-width: 0.8; stroke-linejoin: miter; stroke-linecap: square"/>
   </g>
   <g id="patch_6">
    <path d="M 57.6 41.472 
L 414.72 41.472 
" style="fill: none; stroke: #000000; stroke-width: 0.8; stroke-linejoin: miter; stroke-linecap: square"/>
   </g>
   <g id="text_15">
    <!-- With bias = 100 -->
    <g transform="translate(188.061563 35.472) scale(0.12 -0.12)">
     <defs>
      <path id="DejaVuSans-57" d="M 213 4666 
L 850 4666 
L 1831 722 
L 2809 4666 
L 3519 4666 
L 4500 722 
L 5478 4666 
L 6119 4666 
L 4947 0 
L 4153 0 
L 3169 4050 
L 2175 0 
L 1381 0 
L 213 4666 
z
" transform="scale(0.015625)"/>
      <path id="DejaVuSans-74" d="M 1172 4494 
L 1172 3500 
L 2356 3500 
L 2356 3053 
L 1172 3053 
L 1172 1153 
Q 1172 725 1289 603 
Q 1406 481 1766 481 
L 2356 481 
L 2356 0 
L 1766 0 
Q 1100 0 847 248 
Q 594 497 594 1153 
L 594 3053 
L 172 3053 
L 172 3500 
L 594 3500 
L 594 4494 
L 1172 4494 
z
" transform="scale(0.015625)"/>
      <path id="DejaVuSans-68" d="M 3513 2113 
L 3513 0 
L 2938 0 
L 2938 2094 
Q 2938 2591 2744 2837 
Q 2550 3084 2163 3084 
Q 1697 3084 1428 2787 
Q 1159 2491 1159 1978 
L 1159 0 
L 581 0 
L 581 4863 
L 1159 4863 
L 1159 2956 
Q 1366 3272 1645 3428 
Q 1925 3584 2291 3584 
Q 2894 3584 3203 3211 
Q 3513 2838 3513 2113 
z
" transform="scale(0.015625)"/>
      <path id="DejaVuSans-20" transform="scale(0.015625)"/>
      <path id="DejaVuSans-62" d="M 3116 1747 
Q 3116 2381 2855 2742 
Q 2594 3103 2138 3103 
Q 1681 3103 1420 2742 
Q 1159 2381 1159 1747 
Q 1159 1113 1420 752 
Q 1681 391 2138 391 
Q 2594 391 2855 752 
Q 3116 1113 3116 1747 
z
M 1159 2969 
Q 1341 3281 1617 3432 
Q 1894 3584 2278 3584 
Q 2916 3584 3314 3078 
Q 3713 2572 3713 1747 
Q 3713 922 3314 415 
Q 2916 -91 2278 -91 
Q 1894 -91 1617 61 
Q 1341 213 1159 525 
L 1159 0 
L 581 0 
L 581 4863 
L 1159 4863 
L 1159 2969 
z
" transform="scale(0.015625)"/>
      <path id="DejaVuSans-3d" d="M 678 2906 
L 4684 2906 
L 4684 2381 
L 678 2381 
L 678 2906 
z
M 678 1631 
L 4684 1631 
L 4684 1100 
L 678 1100 
L 678 1631 
z
" transform="scale(0.015625)"/>
     </defs>
     <use xlink:href="#DejaVuSans-57"/>
     <use xlink:href="#DejaVuSans-69" x="96.626953"/>
     <use xlink:href="#DejaVuSans-74" x="124.410156"/>
     <use xlink:href="#DejaVuSans-68" x="163.619141"/>
     <use xlink:href="#DejaVuSans-20" x="226.998047"/>
     <use xlink:href="#DejaVuSans-62" x="258.785156"/>
     <use xlink:href="#DejaVuSans-69" x="322.261719"/>
     <use xlink:href="#DejaVuSans-61" x="350.044922"/>
     <use xlink:href="#DejaVuSans-73" x="411.324219"/>
     <use xlink:href="#DejaVuSans-20" x="463.423828"/>
     <use xlink:href="#DejaVuSans-3d" x="495.210938"/>
     <use xlink:href="#DejaVuSans-20" x="579"/>
     <use xlink:href="#DejaVuSans-31" x="610.787109"/>
     <use xlink:href="#DejaVuSans-30" x="674.410156"/>
     <use xlink:href="#DejaVuSans-30" x="738.033203"/>
    </g>
   </g>
  </g>
 </g>
 <defs>
  <clipPath id="p0ba9283561">
   <rect x="57.6" y="41.472" width="357.12" height="266.112"/>
  </clipPath>
 </defs>
</svg>
