<?xml version="1.0" encoding="utf-8" standalone="no"?>
<!DOCTYPE svg PUBLIC "-//W3C//DTD SVG 1.1//EN"
  "http://www.w3.org/Graphics/SVG/1.1/DTD/svg11.dtd">
<svg xmlns:xlink="http://www.w3.org/1999/xlink" width="460.8pt" height="345.6pt" viewBox="0 0 460.8 345.6" xmlns="http://www.w3.org/2000/svg" version="1.1">
 <metadata>
  <rdf:RDF xmlns:dc="http://purl.org/dc/elements/1.1/" xmlns:cc="http://creativecommons.org/ns#" xmlns:rdf="http://www.w3.org/1999/02/22-rdf-syntax-ns#">
   <cc:Work>
    <dc:type rdf:resource="http://purl.org/dc/dcmitype/StillImage"/>
    <dc:date>2024-01-10T13:48:17.512779</dc:date>
    <dc:format>image/svg+xml</dc:format>
    <dc:creator>
     <cc:Agent>
      <dc:title>Matplotlib v3.8.1, https://matplotlib.org/</dc:title>
     </cc:Agent>
    </dc:creator>
   </cc:Work>
  </rdf:RDF>
 </metadata>
 <defs>
  <style type="text/css">*{stroke-linejoin: round; stroke-linecap: butt}</style>
 </defs>
 <g id="figure_1">
  <g id="patch_1">
   <path d="M 0 345.6 
L 460.8 345.6 
L 460.8 0 
L 0 0 
z
" style="fill: #ffffff"/>
  </g>
  <g id="axes_1">
   <g id="patch_2">
    <path d="M 57.6 307.584 
L 414.72 307.584 
L 414.72 41.472 
L 57.6 41.472 
z
" style="fill: #ffffff"/>
   </g>
   <g id="matplotlib.axis_1">
    <g id="xtick_1">
     <g id="line2d_1">
      <defs>
       <path id="m1c1c400ce9" d="M 0 0 
L 0 3.5 
" style="stroke: #000000; stroke-width: 0.8"/>
      </defs>
      <g>
       <use xlink:href="#m1c1c400ce9" x="73.832727" y="307.584" style="stroke: #000000; stroke-width: 0.8"/>
      </g>
     </g>
     <g id="text_1">
      <!-- 0 -->
      <g transform="translate(70.651477 322.182437) scale(0.1 -0.1)">
       <defs>
        <path id="DejaVuSans-30" d="M 2034 4250 
Q 1547 4250 1301 3770 
Q 1056 3291 1056 2328 
Q 1056 1369 1301 889 
Q 1547 409 2034 409 
Q 2525 409 2770 889 
Q 3016 1369 3016 2328 
Q 3016 3291 2770 3770 
Q 2525 4250 2034 4250 
z
M 2034 4750 
Q 2819 4750 3233 4129 
Q 3647 3509 3647 2328 
Q 3647 1150 3233 529 
Q 2819 -91 2034 -91 
Q 1250 -91 836 529 
Q 422 1150 422 2328 
Q 422 3509 836 4129 
Q 1250 4750 2034 4750 
z
" transform="scale(0.015625)"/>
       </defs>
       <use xlink:href="#DejaVuSans-30"/>
      </g>
     </g>
    </g>
    <g id="xtick_2">
     <g id="line2d_2">
      <g>
       <use xlink:href="#m1c1c400ce9" x="139.419504" y="307.584" style="stroke: #000000; stroke-width: 0.8"/>
      </g>
     </g>
     <g id="text_2">
      <!-- 20 -->
      <g transform="translate(133.057004 322.182437) scale(0.1 -0.1)">
       <defs>
        <path id="DejaVuSans-32" d="M 1228 531 
L 3431 531 
L 3431 0 
L 469 0 
L 469 531 
Q 828 903 1448 1529 
Q 2069 2156 2228 2338 
Q 2531 2678 2651 2914 
Q 2772 3150 2772 3378 
Q 2772 3750 2511 3984 
Q 2250 4219 1831 4219 
Q 1534 4219 1204 4116 
Q 875 4013 500 3803 
L 500 4441 
Q 881 4594 1212 4672 
Q 1544 4750 1819 4750 
Q 2544 4750 2975 4387 
Q 3406 4025 3406 3419 
Q 3406 3131 3298 2873 
Q 3191 2616 2906 2266 
Q 2828 2175 2409 1742 
Q 1991 1309 1228 531 
z
" transform="scale(0.015625)"/>
       </defs>
       <use xlink:href="#DejaVuSans-32"/>
       <use xlink:href="#DejaVuSans-30" x="63.623047"/>
      </g>
     </g>
    </g>
    <g id="xtick_3">
     <g id="line2d_3">
      <g>
       <use xlink:href="#m1c1c400ce9" x="205.006281" y="307.584" style="stroke: #000000; stroke-width: 0.8"/>
      </g>
     </g>
     <g id="text_3">
      <!-- 40 -->
      <g transform="translate(198.643781 322.182437) scale(0.1 -0.1)">
       <defs>
        <path id="DejaVuSans-34" d="M 2419 4116 
L 825 1625 
L 2419 1625 
L 2419 4116 
z
M 2253 4666 
L 3047 4666 
L 3047 1625 
L 3713 1625 
L 3713 1100 
L 3047 1100 
L 3047 0 
L 2419 0 
L 2419 1100 
L 313 1100 
L 313 1709 
L 2253 4666 
z
" transform="scale(0.015625)"/>
       </defs>
       <use xlink:href="#DejaVuSans-34"/>
       <use xlink:href="#DejaVuSans-30" x="63.623047"/>
      </g>
     </g>
    </g>
    <g id="xtick_4">
     <g id="line2d_4">
      <g>
       <use xlink:href="#m1c1c400ce9" x="270.593058" y="307.584" style="stroke: #000000; stroke-width: 0.8"/>
      </g>
     </g>
     <g id="text_4">
      <!-- 60 -->
      <g transform="translate(264.230558 322.182437) scale(0.1 -0.1)">
       <defs>
        <path id="DejaVuSans-36" d="M 2113 2584 
Q 1688 2584 1439 2293 
Q 1191 2003 1191 1497 
Q 1191 994 1439 701 
Q 1688 409 2113 409 
Q 2538 409 2786 701 
Q 3034 994 3034 1497 
Q 3034 2003 2786 2293 
Q 2538 2584 2113 2584 
z
M 3366 4563 
L 3366 3988 
Q 3128 4100 2886 4159 
Q 2644 4219 2406 4219 
Q 1781 4219 1451 3797 
Q 1122 3375 1075 2522 
Q 1259 2794 1537 2939 
Q 1816 3084 2150 3084 
Q 2853 3084 3261 2657 
Q 3669 2231 3669 1497 
Q 3669 778 3244 343 
Q 2819 -91 2113 -91 
Q 1303 -91 875 529 
Q 447 1150 447 2328 
Q 447 3434 972 4092 
Q 1497 4750 2381 4750 
Q 2619 4750 2861 4703 
Q 3103 4656 3366 4563 
z
" transform="scale(0.015625)"/>
       </defs>
       <use xlink:href="#DejaVuSans-36"/>
       <use xlink:href="#DejaVuSans-30" x="63.623047"/>
      </g>
     </g>
    </g>
    <g id="xtick_5">
     <g id="line2d_5">
      <g>
       <use xlink:href="#m1c1c400ce9" x="336.179835" y="307.584" style="stroke: #000000; stroke-width: 0.8"/>
      </g>
     </g>
     <g id="text_5">
      <!-- 80 -->
      <g transform="translate(329.817335 322.182437) scale(0.1 -0.1)">
       <defs>
        <path id="DejaVuSans-38" d="M 2034 2216 
Q 1584 2216 1326 1975 
Q 1069 1734 1069 1313 
Q 1069 891 1326 650 
Q 1584 409 2034 409 
Q 2484 409 2743 651 
Q 3003 894 3003 1313 
Q 3003 1734 2745 1975 
Q 2488 2216 2034 2216 
z
M 1403 2484 
Q 997 2584 770 2862 
Q 544 3141 544 3541 
Q 544 4100 942 4425 
Q 1341 4750 2034 4750 
Q 2731 4750 3128 4425 
Q 3525 4100 3525 3541 
Q 3525 3141 3298 2862 
Q 3072 2584 2669 2484 
Q 3125 2378 3379 2068 
Q 3634 1759 3634 1313 
Q 3634 634 3220 271 
Q 2806 -91 2034 -91 
Q 1263 -91 848 271 
Q 434 634 434 1313 
Q 434 1759 690 2068 
Q 947 2378 1403 2484 
z
M 1172 3481 
Q 1172 3119 1398 2916 
Q 1625 2713 2034 2713 
Q 2441 2713 2670 2916 
Q 2900 3119 2900 3481 
Q 2900 3844 2670 4047 
Q 2441 4250 2034 4250 
Q 1625 4250 1398 4047 
Q 1172 3844 1172 3481 
z
" transform="scale(0.015625)"/>
       </defs>
       <use xlink:href="#DejaVuSans-38"/>
       <use xlink:href="#DejaVuSans-30" x="63.623047"/>
      </g>
     </g>
    </g>
    <g id="xtick_6">
     <g id="line2d_6">
      <g>
       <use xlink:href="#m1c1c400ce9" x="401.766612" y="307.584" style="stroke: #000000; stroke-width: 0.8"/>
      </g>
     </g>
     <g id="text_6">
      <!-- 100 -->
      <g transform="translate(392.222862 322.182437) scale(0.1 -0.1)">
       <defs>
        <path id="DejaVuSans-31" d="M 794 531 
L 1825 531 
L 1825 4091 
L 703 3866 
L 703 4441 
L 1819 4666 
L 2450 4666 
L 2450 531 
L 3481 531 
L 3481 0 
L 794 0 
L 794 531 
z
" transform="scale(0.015625)"/>
       </defs>
       <use xlink:href="#DejaVuSans-31"/>
       <use xlink:href="#DejaVuSans-30" x="63.623047"/>
       <use xlink:href="#DejaVuSans-30" x="127.246094"/>
      </g>
     </g>
    </g>
    <g id="text_7">
     <!-- Individuals -->
     <g transform="translate(209.20375 335.860562) scale(0.1 -0.1)">
      <defs>
       <path id="DejaVuSans-49" d="M 628 4666 
L 1259 4666 
L 1259 0 
L 628 0 
L 628 4666 
z
" transform="scale(0.015625)"/>
       <path id="DejaVuSans-6e" d="M 3513 2113 
L 3513 0 
L 2938 0 
L 2938 2094 
Q 2938 2591 2744 2837 
Q 2550 3084 2163 3084 
Q 1697 3084 1428 2787 
Q 1159 2491 1159 1978 
L 1159 0 
L 581 0 
L 581 3500 
L 1159 3500 
L 1159 2956 
Q 1366 3272 1645 3428 
Q 1925 3584 2291 3584 
Q 2894 3584 3203 3211 
Q 3513 2838 3513 2113 
z
" transform="scale(0.015625)"/>
       <path id="DejaVuSans-64" d="M 2906 2969 
L 2906 4863 
L 3481 4863 
L 3481 0 
L 2906 0 
L 2906 525 
Q 2725 213 2448 61 
Q 2172 -91 1784 -91 
Q 1150 -91 751 415 
Q 353 922 353 1747 
Q 353 2572 751 3078 
Q 1150 3584 1784 3584 
Q 2172 3584 2448 3432 
Q 2725 3281 2906 2969 
z
M 947 1747 
Q 947 1113 1208 752 
Q 1469 391 1925 391 
Q 2381 391 2643 752 
Q 2906 1113 2906 1747 
Q 2906 2381 2643 2742 
Q 2381 3103 1925 3103 
Q 1469 3103 1208 2742 
Q 947 2381 947 1747 
z
" transform="scale(0.015625)"/>
       <path id="DejaVuSans-69" d="M 603 3500 
L 1178 3500 
L 1178 0 
L 603 0 
L 603 3500 
z
M 603 4863 
L 1178 4863 
L 1178 4134 
L 603 4134 
L 603 4863 
z
" transform="scale(0.015625)"/>
       <path id="DejaVuSans-76" d="M 191 3500 
L 800 3500 
L 1894 563 
L 2988 3500 
L 3597 3500 
L 2284 0 
L 1503 0 
L 191 3500 
z
" transform="scale(0.015625)"/>
       <path id="DejaVuSans-75" d="M 544 1381 
L 544 3500 
L 1119 3500 
L 1119 1403 
Q 1119 906 1312 657 
Q 1506 409 1894 409 
Q 2359 409 2629 706 
Q 2900 1003 2900 1516 
L 2900 3500 
L 3475 3500 
L 3475 0 
L 2900 0 
L 2900 538 
Q 2691 219 2414 64 
Q 2138 -91 1772 -91 
Q 1169 -91 856 284 
Q 544 659 544 1381 
z
M 1991 3584 
L 1991 3584 
z
" transform="scale(0.015625)"/>
       <path id="DejaVuSans-61" d="M 2194 1759 
Q 1497 1759 1228 1600 
Q 959 1441 959 1056 
Q 959 750 1161 570 
Q 1363 391 1709 391 
Q 2188 391 2477 730 
Q 2766 1069 2766 1631 
L 2766 1759 
L 2194 1759 
z
M 3341 1997 
L 3341 0 
L 2766 0 
L 2766 531 
Q 2569 213 2275 61 
Q 1981 -91 1556 -91 
Q 1019 -91 701 211 
Q 384 513 384 1019 
Q 384 1609 779 1909 
Q 1175 2209 1959 2209 
L 2766 2209 
L 2766 2266 
Q 2766 2663 2505 2880 
Q 2244 3097 1772 3097 
Q 1472 3097 1187 3025 
Q 903 2953 641 2809 
L 641 3341 
Q 956 3463 1253 3523 
Q 1550 3584 1831 3584 
Q 2591 3584 2966 3190 
Q 3341 2797 3341 1997 
z
" transform="scale(0.015625)"/>
       <path id="DejaVuSans-6c" d="M 603 4863 
L 1178 4863 
L 1178 0 
L 603 0 
L 603 4863 
z
" transform="scale(0.015625)"/>
       <path id="DejaVuSans-73" d="M 2834 3397 
L 2834 2853 
Q 2591 2978 2328 3040 
Q 2066 3103 1784 3103 
Q 1356 3103 1142 2972 
Q 928 2841 928 2578 
Q 928 2378 1081 2264 
Q 1234 2150 1697 2047 
L 1894 2003 
Q 2506 1872 2764 1633 
Q 3022 1394 3022 966 
Q 3022 478 2636 193 
Q 2250 -91 1575 -91 
Q 1294 -91 989 -36 
Q 684 19 347 128 
L 347 722 
Q 666 556 975 473 
Q 1284 391 1588 391 
Q 1994 391 2212 530 
Q 2431 669 2431 922 
Q 2431 1156 2273 1281 
Q 2116 1406 1581 1522 
L 1381 1569 
Q 847 1681 609 1914 
Q 372 2147 372 2553 
Q 372 3047 722 3315 
Q 1072 3584 1716 3584 
Q 2034 3584 2315 3537 
Q 2597 3491 2834 3397 
z
" transform="scale(0.015625)"/>
      </defs>
      <use xlink:href="#DejaVuSans-49"/>
      <use xlink:href="#DejaVuSans-6e" x="29.492188"/>
      <use xlink:href="#DejaVuSans-64" x="92.871094"/>
      <use xlink:href="#DejaVuSans-69" x="156.347656"/>
      <use xlink:href="#DejaVuSans-76" x="184.130859"/>
      <use xlink:href="#DejaVuSans-69" x="243.310547"/>
      <use xlink:href="#DejaVuSans-64" x="271.09375"/>
      <use xlink:href="#DejaVuSans-75" x="334.570312"/>
      <use xlink:href="#DejaVuSans-61" x="397.949219"/>
      <use xlink:href="#DejaVuSans-6c" x="459.228516"/>
      <use xlink:href="#DejaVuSans-73" x="487.011719"/>
     </g>
    </g>
   </g>
   <g id="matplotlib.axis_2">
    <g id="ytick_1">
     <g id="line2d_7">
      <defs>
       <path id="m8dbb6634ab" d="M 0 0 
L -3.5 0 
" style="stroke: #000000; stroke-width: 0.8"/>
      </defs>
      <g>
       <use xlink:href="#m8dbb6634ab" x="57.6" y="300.807846" style="stroke: #000000; stroke-width: 0.8"/>
      </g>
     </g>
     <g id="text_8">
      <!-- 0.0 -->
      <g transform="translate(34.696875 304.607065) scale(0.1 -0.1)">
       <defs>
        <path id="DejaVuSans-2e" d="M 684 794 
L 1344 794 
L 1344 0 
L 684 0 
L 684 794 
z
" transform="scale(0.015625)"/>
       </defs>
       <use xlink:href="#DejaVuSans-30"/>
       <use xlink:href="#DejaVuSans-2e" x="63.623047"/>
       <use xlink:href="#DejaVuSans-30" x="95.410156"/>
      </g>
     </g>
    </g>
    <g id="ytick_2">
     <g id="line2d_8">
      <g>
       <use xlink:href="#m8dbb6634ab" x="57.6" y="256.475794" style="stroke: #000000; stroke-width: 0.8"/>
      </g>
     </g>
     <g id="text_9">
      <!-- 0.1 -->
      <g transform="translate(34.696875 260.275013) scale(0.1 -0.1)">
       <use xlink:href="#DejaVuSans-30"/>
       <use xlink:href="#DejaVuSans-2e" x="63.623047"/>
       <use xlink:href="#DejaVuSans-31" x="95.410156"/>
      </g>
     </g>
    </g>
    <g id="ytick_3">
     <g id="line2d_9">
      <g>
       <use xlink:href="#m8dbb6634ab" x="57.6" y="212.143742" style="stroke: #000000; stroke-width: 0.8"/>
      </g>
     </g>
     <g id="text_10">
      <!-- 0.2 -->
      <g transform="translate(34.696875 215.94296) scale(0.1 -0.1)">
       <use xlink:href="#DejaVuSans-30"/>
       <use xlink:href="#DejaVuSans-2e" x="63.623047"/>
       <use xlink:href="#DejaVuSans-32" x="95.410156"/>
      </g>
     </g>
    </g>
    <g id="ytick_4">
     <g id="line2d_10">
      <g>
       <use xlink:href="#m8dbb6634ab" x="57.6" y="167.811689" style="stroke: #000000; stroke-width: 0.8"/>
      </g>
     </g>
     <g id="text_11">
      <!-- 0.3 -->
      <g transform="translate(34.696875 171.610908) scale(0.1 -0.1)">
       <defs>
        <path id="DejaVuSans-33" d="M 2597 2516 
Q 3050 2419 3304 2112 
Q 3559 1806 3559 1356 
Q 3559 666 3084 287 
Q 2609 -91 1734 -91 
Q 1441 -91 1130 -33 
Q 819 25 488 141 
L 488 750 
Q 750 597 1062 519 
Q 1375 441 1716 441 
Q 2309 441 2620 675 
Q 2931 909 2931 1356 
Q 2931 1769 2642 2001 
Q 2353 2234 1838 2234 
L 1294 2234 
L 1294 2753 
L 1863 2753 
Q 2328 2753 2575 2939 
Q 2822 3125 2822 3475 
Q 2822 3834 2567 4026 
Q 2313 4219 1838 4219 
Q 1578 4219 1281 4162 
Q 984 4106 628 3988 
L 628 4550 
Q 988 4650 1302 4700 
Q 1616 4750 1894 4750 
Q 2613 4750 3031 4423 
Q 3450 4097 3450 3541 
Q 3450 3153 3228 2886 
Q 3006 2619 2597 2516 
z
" transform="scale(0.015625)"/>
       </defs>
       <use xlink:href="#DejaVuSans-30"/>
       <use xlink:href="#DejaVuSans-2e" x="63.623047"/>
       <use xlink:href="#DejaVuSans-33" x="95.410156"/>
      </g>
     </g>
    </g>
    <g id="ytick_5">
     <g id="line2d_11">
      <g>
       <use xlink:href="#m8dbb6634ab" x="57.6" y="123.479637" style="stroke: #000000; stroke-width: 0.8"/>
      </g>
     </g>
     <g id="text_12">
      <!-- 0.4 -->
      <g transform="translate(34.696875 127.278856) scale(0.1 -0.1)">
       <use xlink:href="#DejaVuSans-30"/>
       <use xlink:href="#DejaVuSans-2e" x="63.623047"/>
       <use xlink:href="#DejaVuSans-34" x="95.410156"/>
      </g>
     </g>
    </g>
    <g id="ytick_6">
     <g id="line2d_12">
      <g>
       <use xlink:href="#m8dbb6634ab" x="57.6" y="79.147585" style="stroke: #000000; stroke-width: 0.8"/>
      </g>
     </g>
     <g id="text_13">
      <!-- 0.5 -->
      <g transform="translate(34.696875 82.946803) scale(0.1 -0.1)">
       <defs>
        <path id="DejaVuSans-35" d="M 691 4666 
L 3169 4666 
L 3169 4134 
L 1269 4134 
L 1269 2991 
Q 1406 3038 1543 3061 
Q 1681 3084 1819 3084 
Q 2600 3084 3056 2656 
Q 3513 2228 3513 1497 
Q 3513 744 3044 326 
Q 2575 -91 1722 -91 
Q 1428 -91 1123 -41 
Q 819 9 494 109 
L 494 744 
Q 775 591 1075 516 
Q 1375 441 1709 441 
Q 2250 441 2565 725 
Q 2881 1009 2881 1497 
Q 2881 1984 2565 2268 
Q 2250 2553 1709 2553 
Q 1456 2553 1204 2497 
Q 953 2441 691 2322 
L 691 4666 
z
" transform="scale(0.015625)"/>
       </defs>
       <use xlink:href="#DejaVuSans-30"/>
       <use xlink:href="#DejaVuSans-2e" x="63.623047"/>
       <use xlink:href="#DejaVuSans-35" x="95.410156"/>
      </g>
     </g>
    </g>
    <g id="text_14">
     <!-- accuracy -->
     <g transform="translate(28.617187 197.087375) rotate(-90) scale(0.1 -0.1)">
      <defs>
       <path id="DejaVuSans-63" d="M 3122 3366 
L 3122 2828 
Q 2878 2963 2633 3030 
Q 2388 3097 2138 3097 
Q 1578 3097 1268 2742 
Q 959 2388 959 1747 
Q 959 1106 1268 751 
Q 1578 397 2138 397 
Q 2388 397 2633 464 
Q 2878 531 3122 666 
L 3122 134 
Q 2881 22 2623 -34 
Q 2366 -91 2075 -91 
Q 1284 -91 818 406 
Q 353 903 353 1747 
Q 353 2603 823 3093 
Q 1294 3584 2113 3584 
Q 2378 3584 2631 3529 
Q 2884 3475 3122 3366 
z
" transform="scale(0.015625)"/>
       <path id="DejaVuSans-72" d="M 2631 2963 
Q 2534 3019 2420 3045 
Q 2306 3072 2169 3072 
Q 1681 3072 1420 2755 
Q 1159 2438 1159 1844 
L 1159 0 
L 581 0 
L 581 3500 
L 1159 3500 
L 1159 2956 
Q 1341 3275 1631 3429 
Q 1922 3584 2338 3584 
Q 2397 3584 2469 3576 
Q 2541 3569 2628 3553 
L 2631 2963 
z
" transform="scale(0.015625)"/>
       <path id="DejaVuSans-79" d="M 2059 -325 
Q 1816 -950 1584 -1140 
Q 1353 -1331 966 -1331 
L 506 -1331 
L 506 -850 
L 844 -850 
Q 1081 -850 1212 -737 
Q 1344 -625 1503 -206 
L 1606 56 
L 191 3500 
L 800 3500 
L 1894 763 
L 2988 3500 
L 3597 3500 
L 2059 -325 
z
" transform="scale(0.015625)"/>
      </defs>
      <use xlink:href="#DejaVuSans-61"/>
      <use xlink:href="#DejaVuSans-63" x="61.279297"/>
      <use xlink:href="#DejaVuSans-63" x="116.259766"/>
      <use xlink:href="#DejaVuSans-75" x="171.240234"/>
      <use xlink:href="#DejaVuSans-72" x="234.619141"/>
      <use xlink:href="#DejaVuSans-61" x="275.732422"/>
      <use xlink:href="#DejaVuSans-63" x="337.011719"/>
      <use xlink:href="#DejaVuSans-79" x="391.992188"/>
     </g>
    </g>
   </g>
   <g id="line2d_13">
    <path d="M 73.832727 295.488 
L 77.112066 123.523974 
L 80.391405 106.943783 
L 83.670744 95.949433 
L 86.950083 91.560558 
L 90.229421 90.363592 
L 93.50876 89.476949 
L 96.788099 82.915813 
L 100.067438 84.689086 
L 103.346777 89.166626 
L 106.626116 113.238935 
L 109.905455 91.427566 
L 113.184793 83.004479 
L 116.464132 116.608175 
L 119.743471 87.615011 
L 123.02281 82.516825 
L 126.302149 81.630182 
L 129.581488 91.338901 
L 132.860826 96.880402 
L 136.140165 88.014 
L 139.419504 87.792329 
L 142.698843 63.055048 
L 145.978182 78.349607 
L 149.257521 97.85571 
L 152.53686 93.200839 
L 155.816198 87.526346 
L 159.095537 94.397805 
L 162.374876 80.787865 
L 165.654215 78.083624 
L 168.933554 77.817614 
L 172.212893 70.768837 
L 175.492231 77.817614 
L 178.77157 90.2306 
L 182.050909 84.733425 
L 185.330248 84.910756 
L 188.609587 113.194596 
L 191.888926 82.561151 
L 195.168264 84.157105 
L 198.447603 75.069046 
L 201.726942 92.048212 
L 205.006281 78.65993 
L 208.28562 64.030356 
L 211.564959 87.792329 
L 214.844298 77.684622 
L 218.123636 81.231193 
L 221.402975 82.96014 
L 224.682314 86.684029 
L 227.961653 67.399597 
L 231.240992 95.772102 
L 234.520331 94.176147 
L 237.799669 78.43826 
L 241.079008 89.388284 
L 244.358347 108.052083 
L 247.637686 80.654873 
L 250.917025 53.568 
L 254.196364 59.8188 
L 257.475702 72.630775 
L 260.755041 71.256491 
L 264.03438 74.537052 
L 267.313719 95.461779 
L 270.593058 81.718848 
L 273.872397 85.797386 
L 277.151736 110.224357 
L 280.431074 74.005059 
L 283.710413 79.635239 
L 286.989752 69.084204 
L 290.269091 94.619475 
L 293.54843 88.501654 
L 296.827769 67.266605 
L 300.107107 77.728961 
L 303.386446 81.585843 
L 306.665785 75.955676 
L 309.945124 76.000015 
L 313.224463 77.152655 
L 316.503802 79.768231 
L 319.78314 77.994945 
L 323.062479 84.999422 
L 326.341818 87.659337 
L 329.621157 78.172276 
L 332.900496 79.413581 
L 336.179835 82.117836 
L 339.459174 79.989888 
L 342.738512 77.285647 
L 346.017851 89.875938 
L 349.29719 79.014593 
L 352.576529 70.946168 
L 355.855868 53.833984 
L 359.135207 74.670044 
L 362.414545 115.810198 
L 365.693884 62.478741 
L 368.973223 86.9057 
L 372.252562 82.60549 
L 375.531901 71.611127 
L 378.81124 77.817614 
L 382.090579 72.586435 
L 385.369917 96.924741 
L 388.649256 64.651003 
L 391.928595 85.75306 
L 395.207934 82.649817 
L 398.487273 87.216023 
" clip-path="url(#p0660727fb0)" style="fill: none; stroke: #1f77b4; stroke-width: 1.5; stroke-linecap: square"/>
    <defs>
     <path id="m857088e6b9" d="M 0 3 
C 0.795609 3 1.55874 2.683901 2.12132 2.12132 
C 2.683901 1.55874 3 0.795609 3 0 
C 3 -0.795609 2.683901 -1.55874 2.12132 -2.12132 
C 1.55874 -2.683901 0.795609 -3 0 -3 
C -0.795609 -3 -1.55874 -2.683901 -2.12132 -2.12132 
C -2.683901 -1.55874 -3 -0.795609 -3 0 
C -3 0.795609 -2.683901 1.55874 -2.12132 2.12132 
C -1.55874 2.683901 -0.795609 3 0 3 
z
" style="stroke: #1f77b4"/>
    </defs>
    <g clip-path="url(#p0660727fb0)">
     <use xlink:href="#m857088e6b9" x="73.832727" y="295.488" style="fill: #1f77b4; stroke: #1f77b4"/>
     <use xlink:href="#m857088e6b9" x="77.112066" y="123.523974" style="fill: #1f77b4; stroke: #1f77b4"/>
     <use xlink:href="#m857088e6b9" x="80.391405" y="106.943783" style="fill: #1f77b4; stroke: #1f77b4"/>
     <use xlink:href="#m857088e6b9" x="83.670744" y="95.949433" style="fill: #1f77b4; stroke: #1f77b4"/>
     <use xlink:href="#m857088e6b9" x="86.950083" y="91.560558" style="fill: #1f77b4; stroke: #1f77b4"/>
     <use xlink:href="#m857088e6b9" x="90.229421" y="90.363592" style="fill: #1f77b4; stroke: #1f77b4"/>
     <use xlink:href="#m857088e6b9" x="93.50876" y="89.476949" style="fill: #1f77b4; stroke: #1f77b4"/>
     <use xlink:href="#m857088e6b9" x="96.788099" y="82.915813" style="fill: #1f77b4; stroke: #1f77b4"/>
     <use xlink:href="#m857088e6b9" x="100.067438" y="84.689086" style="fill: #1f77b4; stroke: #1f77b4"/>
     <use xlink:href="#m857088e6b9" x="103.346777" y="89.166626" style="fill: #1f77b4; stroke: #1f77b4"/>
     <use xlink:href="#m857088e6b9" x="106.626116" y="113.238935" style="fill: #1f77b4; stroke: #1f77b4"/>
     <use xlink:href="#m857088e6b9" x="109.905455" y="91.427566" style="fill: #1f77b4; stroke: #1f77b4"/>
     <use xlink:href="#m857088e6b9" x="113.184793" y="83.004479" style="fill: #1f77b4; stroke: #1f77b4"/>
     <use xlink:href="#m857088e6b9" x="116.464132" y="116.608175" style="fill: #1f77b4; stroke: #1f77b4"/>
     <use xlink:href="#m857088e6b9" x="119.743471" y="87.615011" style="fill: #1f77b4; stroke: #1f77b4"/>
     <use xlink:href="#m857088e6b9" x="123.02281" y="82.516825" style="fill: #1f77b4; stroke: #1f77b4"/>
     <use xlink:href="#m857088e6b9" x="126.302149" y="81.630182" style="fill: #1f77b4; stroke: #1f77b4"/>
     <use xlink:href="#m857088e6b9" x="129.581488" y="91.338901" style="fill: #1f77b4; stroke: #1f77b4"/>
     <use xlink:href="#m857088e6b9" x="132.860826" y="96.880402" style="fill: #1f77b4; stroke: #1f77b4"/>
     <use xlink:href="#m857088e6b9" x="136.140165" y="88.014" style="fill: #1f77b4; stroke: #1f77b4"/>
     <use xlink:href="#m857088e6b9" x="139.419504" y="87.792329" style="fill: #1f77b4; stroke: #1f77b4"/>
     <use xlink:href="#m857088e6b9" x="142.698843" y="63.055048" style="fill: #1f77b4; stroke: #1f77b4"/>
     <use xlink:href="#m857088e6b9" x="145.978182" y="78.349607" style="fill: #1f77b4; stroke: #1f77b4"/>
     <use xlink:href="#m857088e6b9" x="149.257521" y="97.85571" style="fill: #1f77b4; stroke: #1f77b4"/>
     <use xlink:href="#m857088e6b9" x="152.53686" y="93.200839" style="fill: #1f77b4; stroke: #1f77b4"/>
     <use xlink:href="#m857088e6b9" x="155.816198" y="87.526346" style="fill: #1f77b4; stroke: #1f77b4"/>
     <use xlink:href="#m857088e6b9" x="159.095537" y="94.397805" style="fill: #1f77b4; stroke: #1f77b4"/>
     <use xlink:href="#m857088e6b9" x="162.374876" y="80.787865" style="fill: #1f77b4; stroke: #1f77b4"/>
     <use xlink:href="#m857088e6b9" x="165.654215" y="78.083624" style="fill: #1f77b4; stroke: #1f77b4"/>
     <use xlink:href="#m857088e6b9" x="168.933554" y="77.817614" style="fill: #1f77b4; stroke: #1f77b4"/>
     <use xlink:href="#m857088e6b9" x="172.212893" y="70.768837" style="fill: #1f77b4; stroke: #1f77b4"/>
     <use xlink:href="#m857088e6b9" x="175.492231" y="77.817614" style="fill: #1f77b4; stroke: #1f77b4"/>
     <use xlink:href="#m857088e6b9" x="178.77157" y="90.2306" style="fill: #1f77b4; stroke: #1f77b4"/>
     <use xlink:href="#m857088e6b9" x="182.050909" y="84.733425" style="fill: #1f77b4; stroke: #1f77b4"/>
     <use xlink:href="#m857088e6b9" x="185.330248" y="84.910756" style="fill: #1f77b4; stroke: #1f77b4"/>
     <use xlink:href="#m857088e6b9" x="188.609587" y="113.194596" style="fill: #1f77b4; stroke: #1f77b4"/>
     <use xlink:href="#m857088e6b9" x="191.888926" y="82.561151" style="fill: #1f77b4; stroke: #1f77b4"/>
     <use xlink:href="#m857088e6b9" x="195.168264" y="84.157105" style="fill: #1f77b4; stroke: #1f77b4"/>
     <use xlink:href="#m857088e6b9" x="198.447603" y="75.069046" style="fill: #1f77b4; stroke: #1f77b4"/>
     <use xlink:href="#m857088e6b9" x="201.726942" y="92.048212" style="fill: #1f77b4; stroke: #1f77b4"/>
     <use xlink:href="#m857088e6b9" x="205.006281" y="78.65993" style="fill: #1f77b4; stroke: #1f77b4"/>
     <use xlink:href="#m857088e6b9" x="208.28562" y="64.030356" style="fill: #1f77b4; stroke: #1f77b4"/>
     <use xlink:href="#m857088e6b9" x="211.564959" y="87.792329" style="fill: #1f77b4; stroke: #1f77b4"/>
     <use xlink:href="#m857088e6b9" x="214.844298" y="77.684622" style="fill: #1f77b4; stroke: #1f77b4"/>
     <use xlink:href="#m857088e6b9" x="218.123636" y="81.231193" style="fill: #1f77b4; stroke: #1f77b4"/>
     <use xlink:href="#m857088e6b9" x="221.402975" y="82.96014" style="fill: #1f77b4; stroke: #1f77b4"/>
     <use xlink:href="#m857088e6b9" x="224.682314" y="86.684029" style="fill: #1f77b4; stroke: #1f77b4"/>
     <use xlink:href="#m857088e6b9" x="227.961653" y="67.399597" style="fill: #1f77b4; stroke: #1f77b4"/>
     <use xlink:href="#m857088e6b9" x="231.240992" y="95.772102" style="fill: #1f77b4; stroke: #1f77b4"/>
     <use xlink:href="#m857088e6b9" x="234.520331" y="94.176147" style="fill: #1f77b4; stroke: #1f77b4"/>
     <use xlink:href="#m857088e6b9" x="237.799669" y="78.43826" style="fill: #1f77b4; stroke: #1f77b4"/>
     <use xlink:href="#m857088e6b9" x="241.079008" y="89.388284" style="fill: #1f77b4; stroke: #1f77b4"/>
     <use xlink:href="#m857088e6b9" x="244.358347" y="108.052083" style="fill: #1f77b4; stroke: #1f77b4"/>
     <use xlink:href="#m857088e6b9" x="247.637686" y="80.654873" style="fill: #1f77b4; stroke: #1f77b4"/>
     <use xlink:href="#m857088e6b9" x="250.917025" y="53.568" style="fill: #1f77b4; stroke: #1f77b4"/>
     <use xlink:href="#m857088e6b9" x="254.196364" y="59.8188" style="fill: #1f77b4; stroke: #1f77b4"/>
     <use xlink:href="#m857088e6b9" x="257.475702" y="72.630775" style="fill: #1f77b4; stroke: #1f77b4"/>
     <use xlink:href="#m857088e6b9" x="260.755041" y="71.256491" style="fill: #1f77b4; stroke: #1f77b4"/>
     <use xlink:href="#m857088e6b9" x="264.03438" y="74.537052" style="fill: #1f77b4; stroke: #1f77b4"/>
     <use xlink:href="#m857088e6b9" x="267.313719" y="95.461779" style="fill: #1f77b4; stroke: #1f77b4"/>
     <use xlink:href="#m857088e6b9" x="270.593058" y="81.718848" style="fill: #1f77b4; stroke: #1f77b4"/>
     <use xlink:href="#m857088e6b9" x="273.872397" y="85.797386" style="fill: #1f77b4; stroke: #1f77b4"/>
     <use xlink:href="#m857088e6b9" x="277.151736" y="110.224357" style="fill: #1f77b4; stroke: #1f77b4"/>
     <use xlink:href="#m857088e6b9" x="280.431074" y="74.005059" style="fill: #1f77b4; stroke: #1f77b4"/>
     <use xlink:href="#m857088e6b9" x="283.710413" y="79.635239" style="fill: #1f77b4; stroke: #1f77b4"/>
     <use xlink:href="#m857088e6b9" x="286.989752" y="69.084204" style="fill: #1f77b4; stroke: #1f77b4"/>
     <use xlink:href="#m857088e6b9" x="290.269091" y="94.619475" style="fill: #1f77b4; stroke: #1f77b4"/>
     <use xlink:href="#m857088e6b9" x="293.54843" y="88.501654" style="fill: #1f77b4; stroke: #1f77b4"/>
     <use xlink:href="#m857088e6b9" x="296.827769" y="67.266605" style="fill: #1f77b4; stroke: #1f77b4"/>
     <use xlink:href="#m857088e6b9" x="300.107107" y="77.728961" style="fill: #1f77b4; stroke: #1f77b4"/>
     <use xlink:href="#m857088e6b9" x="303.386446" y="81.585843" style="fill: #1f77b4; stroke: #1f77b4"/>
     <use xlink:href="#m857088e6b9" x="306.665785" y="75.955676" style="fill: #1f77b4; stroke: #1f77b4"/>
     <use xlink:href="#m857088e6b9" x="309.945124" y="76.000015" style="fill: #1f77b4; stroke: #1f77b4"/>
     <use xlink:href="#m857088e6b9" x="313.224463" y="77.152655" style="fill: #1f77b4; stroke: #1f77b4"/>
     <use xlink:href="#m857088e6b9" x="316.503802" y="79.768231" style="fill: #1f77b4; stroke: #1f77b4"/>
     <use xlink:href="#m857088e6b9" x="319.78314" y="77.994945" style="fill: #1f77b4; stroke: #1f77b4"/>
     <use xlink:href="#m857088e6b9" x="323.062479" y="84.999422" style="fill: #1f77b4; stroke: #1f77b4"/>
     <use xlink:href="#m857088e6b9" x="326.341818" y="87.659337" style="fill: #1f77b4; stroke: #1f77b4"/>
     <use xlink:href="#m857088e6b9" x="329.621157" y="78.172276" style="fill: #1f77b4; stroke: #1f77b4"/>
     <use xlink:href="#m857088e6b9" x="332.900496" y="79.413581" style="fill: #1f77b4; stroke: #1f77b4"/>
     <use xlink:href="#m857088e6b9" x="336.179835" y="82.117836" style="fill: #1f77b4; stroke: #1f77b4"/>
     <use xlink:href="#m857088e6b9" x="339.459174" y="79.989888" style="fill: #1f77b4; stroke: #1f77b4"/>
     <use xlink:href="#m857088e6b9" x="342.738512" y="77.285647" style="fill: #1f77b4; stroke: #1f77b4"/>
     <use xlink:href="#m857088e6b9" x="346.017851" y="89.875938" style="fill: #1f77b4; stroke: #1f77b4"/>
     <use xlink:href="#m857088e6b9" x="349.29719" y="79.014593" style="fill: #1f77b4; stroke: #1f77b4"/>
     <use xlink:href="#m857088e6b9" x="352.576529" y="70.946168" style="fill: #1f77b4; stroke: #1f77b4"/>
     <use xlink:href="#m857088e6b9" x="355.855868" y="53.833984" style="fill: #1f77b4; stroke: #1f77b4"/>
     <use xlink:href="#m857088e6b9" x="359.135207" y="74.670044" style="fill: #1f77b4; stroke: #1f77b4"/>
     <use xlink:href="#m857088e6b9" x="362.414545" y="115.810198" style="fill: #1f77b4; stroke: #1f77b4"/>
     <use xlink:href="#m857088e6b9" x="365.693884" y="62.478741" style="fill: #1f77b4; stroke: #1f77b4"/>
     <use xlink:href="#m857088e6b9" x="368.973223" y="86.9057" style="fill: #1f77b4; stroke: #1f77b4"/>
     <use xlink:href="#m857088e6b9" x="372.252562" y="82.60549" style="fill: #1f77b4; stroke: #1f77b4"/>
     <use xlink:href="#m857088e6b9" x="375.531901" y="71.611127" style="fill: #1f77b4; stroke: #1f77b4"/>
     <use xlink:href="#m857088e6b9" x="378.81124" y="77.817614" style="fill: #1f77b4; stroke: #1f77b4"/>
     <use xlink:href="#m857088e6b9" x="382.090579" y="72.586435" style="fill: #1f77b4; stroke: #1f77b4"/>
     <use xlink:href="#m857088e6b9" x="385.369917" y="96.924741" style="fill: #1f77b4; stroke: #1f77b4"/>
     <use xlink:href="#m857088e6b9" x="388.649256" y="64.651003" style="fill: #1f77b4; stroke: #1f77b4"/>
     <use xlink:href="#m857088e6b9" x="391.928595" y="85.75306" style="fill: #1f77b4; stroke: #1f77b4"/>
     <use xlink:href="#m857088e6b9" x="395.207934" y="82.649817" style="fill: #1f77b4; stroke: #1f77b4"/>
     <use xlink:href="#m857088e6b9" x="398.487273" y="87.216023" style="fill: #1f77b4; stroke: #1f77b4"/>
    </g>
   </g>
   <g id="patch_3">
    <path d="M 57.6 307.584 
L 57.6 41.472 
" style="fill: none; stroke: #000000; stroke-width: 0.8; stroke-linejoin: miter; stroke-linecap: square"/>
   </g>
   <g id="patch_4">
    <path d="M 414.72 307.584 
L 414.72 41.472 
" style="fill: none; stroke: #000000; stroke-width: 0.8; stroke-linejoin: miter; stroke-linecap: square"/>
   </g>
   <g id="patch_5">
    <path d="M 57.6 307.584 
L 414.72 307.584 
" style="fill: none; stroke: #000000; stroke-width: 0.8; stroke-linejoin: miter; stroke-linecap: square"/>
   </g>
   <g id="patch_6">
    <path d="M 57.6 41.472 
L 414.72 41.472 
" style="fill: none; stroke: #000000; stroke-width: 0.8; stroke-linejoin: miter; stroke-linecap: square"/>
   </g>
   <g id="text_15">
    <!-- With bias = 500 -->
    <g transform="translate(188.061563 35.472) scale(0.12 -0.12)">
     <defs>
      <path id="DejaVuSans-57" d="M 213 4666 
L 850 4666 
L 1831 722 
L 2809 4666 
L 3519 4666 
L 4500 722 
L 5478 4666 
L 6119 4666 
L 4947 0 
L 4153 0 
L 3169 4050 
L 2175 0 
L 1381 0 
L 213 4666 
z
" transform="scale(0.015625)"/>
      <path id="DejaVuSans-74" d="M 1172 4494 
L 1172 3500 
L 2356 3500 
L 2356 3053 
L 1172 3053 
L 1172 1153 
Q 1172 725 1289 603 
Q 1406 481 1766 481 
L 2356 481 
L 2356 0 
L 1766 0 
Q 1100 0 847 248 
Q 594 497 594 1153 
L 594 3053 
L 172 3053 
L 172 3500 
L 594 3500 
L 594 4494 
L 1172 4494 
z
" transform="scale(0.015625)"/>
      <path id="DejaVuSans-68" d="M 3513 2113 
L 3513 0 
L 2938 0 
L 2938 2094 
Q 2938 2591 2744 2837 
Q 2550 3084 2163 3084 
Q 1697 3084 1428 2787 
Q 1159 2491 1159 1978 
L 1159 0 
L 581 0 
L 581 4863 
L 1159 4863 
L 1159 2956 
Q 1366 3272 1645 3428 
Q 1925 3584 2291 3584 
Q 2894 3584 3203 3211 
Q 3513 2838 3513 2113 
z
" transform="scale(0.015625)"/>
      <path id="DejaVuSans-20" transform="scale(0.015625)"/>
      <path id="DejaVuSans-62" d="M 3116 1747 
Q 3116 2381 2855 2742 
Q 2594 3103 2138 3103 
Q 1681 3103 1420 2742 
Q 1159 2381 1159 1747 
Q 1159 1113 1420 752 
Q 1681 391 2138 391 
Q 2594 391 2855 752 
Q 3116 1113 3116 1747 
z
M 1159 2969 
Q 1341 3281 1617 3432 
Q 1894 3584 2278 3584 
Q 2916 3584 3314 3078 
Q 3713 2572 3713 1747 
Q 3713 922 3314 415 
Q 2916 -91 2278 -91 
Q 1894 -91 1617 61 
Q 1341 213 1159 525 
L 1159 0 
L 581 0 
L 581 4863 
L 1159 4863 
L 1159 2969 
z
" transform="scale(0.015625)"/>
      <path id="DejaVuSans-3d" d="M 678 2906 
L 4684 2906 
L 4684 2381 
L 678 2381 
L 678 2906 
z
M 678 1631 
L 4684 1631 
L 4684 1100 
L 678 1100 
L 678 1631 
z
" transform="scale(0.015625)"/>
     </defs>
     <use xlink:href="#DejaVuSans-57"/>
     <use xlink:href="#DejaVuSans-69" x="96.626953"/>
     <use xlink:href="#DejaVuSans-74" x="124.410156"/>
     <use xlink:href="#DejaVuSans-68" x="163.619141"/>
     <use xlink:href="#DejaVuSans-20" x="226.998047"/>
     <use xlink:href="#DejaVuSans-62" x="258.785156"/>
     <use xlink:href="#DejaVuSans-69" x="322.261719"/>
     <use xlink:href="#DejaVuSans-61" x="350.044922"/>
     <use xlink:href="#DejaVuSans-73" x="411.324219"/>
     <use xlink:href="#DejaVuSans-20" x="463.423828"/>
     <use xlink:href="#DejaVuSans-3d" x="495.210938"/>
     <use xlink:href="#DejaVuSans-20" x="579"/>
     <use xlink:href="#DejaVuSans-35" x="610.787109"/>
     <use xlink:href="#DejaVuSans-30" x="674.410156"/>
     <use xlink:href="#DejaVuSans-30" x="738.033203"/>
    </g>
   </g>
  </g>
 </g>
 <defs>
  <clipPath id="p0660727fb0">
   <rect x="57.6" y="41.472" width="357.12" height="266.112"/>
  </clipPath>
 </defs>
</svg>
